<?xml version="1.0" encoding="UTF-8" standalone="no"?>
<!DOCTYPE svg  PUBLIC '-//W3C//DTD SVG 1.1//EN'  'http://www.w3.org/Graphics/SVG/1.1/DTD/svg11.dtd'>
<svg xmlns="http://www.w3.org/2000/svg" version="1.1">
<defs>
<font id="Aparajita" horiz-adv-x="824">
<font-face bbox="-988 -356 1806 1550" units-per-em="2048" underline-position="-577" descent="-410" underline-thickness="122" font-family="Aparajita" unicode-range="U+0020-0946" cap-height="1092" panose-1="2 11 6 4 2 2 2 2 2 4" ascent="1638" x-height="737" font-weight="400"/>
<missing-glyph/>
<glyph glyph-name="space" horiz-adv-x="412" unicode=" "/>
<glyph glyph-name="exclam" horiz-adv-x="549" d="M290 289h-31l-71 652q-4 43 -4 64q0 50 26.5 81t64.5 31t64 -31t26 -91q0 -19 -3 -54zM274 155q37 0 63 -26t26 -62q0 -37 -26 -63.5t-63 -26.5t-63.5 26.5t-26.5 63.5q0 36 26.5 62t63.5 26z" unicode="!"/>
<glyph glyph-name="quotedbl" horiz-adv-x="673" d="M464 646l-44 235l-17 98q-2 20 -2 40q0 51 22.5 74.5t59.5 23.5q35 0 58 -23.5t23 -63.5q0 -68 -16 -148l-46 -236h-38zM169 646l-44 239q-18 98 -18 133q0 52 21.5 75.5t57.5 23.5q35 0 58.5 -24t23.5 -63q0 -32 -21 -146l-43 -238h-35z" unicode='&quot;'/>
<glyph glyph-name="numbersign" d="M93 -23l74 367h-137v66h150l56 276h-206v64h221l73 367h67l-73 -367h271l78 367h67l-76 -367h137v-64h-149l-57 -276h206v-66h-219l-75 -367h-65l73 367h-273l-77 -367h-66zM248 410h273l58 276h-275z" unicode="#"/>
<glyph glyph-name="dollar" d="M87 269h35q9 -110 69.5 -169t180.5 -70v470q-181 112 -242 198q-42 61 -42 149q0 99 73.5 173t210.5 89v74h51v-74q66 -4 112 -15q23 -6 154 -56v-240h-31q-11 128 -67 187t-168 70v-409q203 -141 260.5 -208.5t57.5 -167.5q0 -111 -84 -195.5t-234 -97.5v-103h-51v103 q-76 4 -141 18t-144 46v228zM372 680v375q-81 -10 -120 -51.5t-39 -104.5q0 -59 35.5 -110t123.5 -109zM423 30q61 10 93 30q45 28 71 73.5t26 96.5q0 53 -31.5 100.5t-158.5 134.5v-435z" unicode="$"/>
<glyph glyph-name="percent" horiz-adv-x="1373" d="M1121 1117l-796 -1162h-71l795 1162h72zM293 1117q109 0 169 -90.5t60 -207.5q0 -140 -68 -216.5t-163 -76.5q-63 0 -116 35.5t-85 104.5t-32 153q0 85 32 156.5t88 106.5t115 35zM291 1071q-41 0 -73 -48t-32 -203q0 -112 18 -170q13 -45 42 -69q17 -14 42 -14 q39 0 66 42q40 62 40 206q0 153 -39 215q-26 41 -64 41zM1084 542q57 0 113.5 -36.5t87.5 -105.5t31 -152q0 -143 -68.5 -218t-161.5 -75q-59 0 -114 36t-87 103.5t-32 153.5q0 84 32 154.5t87 105t112 34.5zM1084 499q-38 0 -66 -43q-37 -57 -37 -214q0 -144 37 -201 q28 -41 66 -41q37 0 66 44q39 59 39 202q0 152 -39 212q-26 41 -66 41z" unicode="%"/>
<glyph glyph-name="ampersand" horiz-adv-x="1282" d="M841 703h338v-30q-70 -6 -103.5 -31t-104 -153t-159.5 -239q72 -84 128.5 -117.5t113.5 -33.5q55 0 94 30t55 89l29 -22q-29 -113 -95 -167t-154 -54q-66 0 -134 36t-149 121q-99 -89 -179.5 -123t-171.5 -34q-132 0 -210.5 71t-78.5 169q0 97 70 194t264 201 q-38 84 -52 137.5t-14 102.5q0 138 102 210q79 57 179 57q96 0 156.5 -57t60.5 -140q0 -85 -58.5 -149.5t-206.5 -140.5q102 -182 213 -334q142 169 142 285q0 37 -24 66q-18 22 -51 26v30zM534 682q100 47 149.5 107.5t49.5 134.5q0 58 -36 96t-89 38q-70 0 -106 -49 t-36 -95q0 -40 13.5 -88.5t54.5 -143.5zM658 179q-106 145 -147 211.5t-90 165.5q-97 -55 -145.5 -122t-48.5 -145q0 -86 55.5 -151.5t149.5 -65.5q51 0 98 20.5t128 86.5z" unicode="&amp;"/>
<glyph glyph-name="quotesingle" horiz-adv-x="297" d="M127 646l-43 239q-19 99 -19 133q0 52 21 75.5t57 23.5q37 0 60.5 -24t23.5 -63q0 -29 -21 -146l-43 -238h-36z" unicode="&apos;"/>
<glyph glyph-name="parenleft" horiz-adv-x="549" d="M512 -323v-30q-122 62 -203 144q-116 116 -178.5 275t-62.5 329q0 250 123 455.5t321 294.5v-34q-99 -55 -162.5 -150t-95 -240.5t-31.5 -304.5q0 -172 27 -313q20 -111 50 -178t80.5 -129t131.5 -119z" unicode="("/>
<glyph glyph-name="parenright" horiz-adv-x="549" d="M37 1111v34q122 -61 204 -143q115 -117 177.5 -275.5t62.5 -329.5q0 -250 -122.5 -455.5t-321.5 -294.5v30q99 56 163 150.5t95 240.5t31 305q0 171 -27 313q-20 111 -50 178t-80 129t-132 118z" unicode=")"/>
<glyph glyph-name="asterisk" d="M398 840q-4 56 -23 111q-27 79 -27 108q0 42 19.5 64t48.5 22q25 0 43.5 -22t18.5 -62q0 -36 -21 -101t-26 -120q44 29 79 69q55 63 81.5 78.5t54.5 15.5q26 0 44 -18t18 -43q0 -30 -26.5 -53.5t-132.5 -46.5q-62 -14 -103 -31q42 -22 102 -33q98 -18 128 -44.5t30 -58.5 q0 -24 -18 -41.5t-42 -17.5q-25 0 -54 17t-79 75q-33 40 -82 74q1 -45 18 -99q29 -95 29 -130q0 -32 -19 -54t-41 -22q-30 0 -54 23q-17 17 -17 54q0 38 18.5 92.5t23.5 75t9 60.5q-48 -31 -83 -70q-59 -66 -89 -83q-21 -13 -43 -13q-28 0 -47 18.5t-19 40.5q0 21 16.5 43 t49.5 36q21 10 99 26q50 11 97 31q-43 21 -104 33q-99 21 -122 38q-36 27 -36 65q0 21 18 39.5t42 18.5q27 0 56.5 -17t74 -68t90.5 -80z" unicode="*"/>
<glyph glyph-name="plus" horiz-adv-x="930" d="M431 114v401h-401v66h401v400h64v-400h403v-66h-403v-401h-64z" unicode="+"/>
<glyph glyph-name="comma" horiz-adv-x="412" d="M89 -275v36q82 27 127.5 84.5t45.5 122.5q0 15 -7 26q-5 7 -11 7q-9 0 -39 -16q-14 -8 -30 -8q-40 0 -63 23.5t-23 64.5q0 40 30 68t73 28q54 0 95 -46.5t41 -122.5q0 -83 -57.5 -154t-181.5 -113z" unicode=","/>
<glyph glyph-name="hyphen" horiz-adv-x="549" d="M67 431h416v-122h-416v122z" unicode="-"/>
<glyph glyph-name="period" horiz-adv-x="412" d="M206 156q38 0 63.5 -26t25.5 -63t-26 -63.5t-63 -26.5t-63 26.5t-26 63.5q0 38 26 63.5t63 25.5z" unicode="."/>
<glyph glyph-name="slash" horiz-adv-x="458" d="M462 1145l-395 -1168h-65l396 1168h64z" unicode="/"/>
<glyph glyph-name="zero" d="M60 539q0 187 56 322t150 201q72 52 149 52q126 0 226 -128q125 -158 125 -430q0 -190 -55 -322.5t-140 -192.5t-164 -60q-156 0 -260 184q-87 155 -87 374zM217 519q0 -225 56 -368q46 -120 137 -120q43 0 90 39t71 131q37 139 37 391q0 186 -39 311q-29 93 -75 131 q-33 27 -79 27q-55 0 -98 -49q-58 -67 -79 -210.5t-21 -282.5z" unicode="0"/>
<glyph glyph-name="one" d="M193 985l266 129h26v-922q0 -91 8 -113.5t32 -35t98 -13.5v-30h-410v30q77 1 99.5 13t31.5 31.5t9 117.5v590q0 119 -8 153q-6 25 -21 37.5t-36 12.5q-30 0 -83 -25z" unicode="1"/>
<glyph glyph-name="two" d="M756 210l-77 -210h-644v30q285 259 400.5 423t115.5 300q0 104 -63.5 171t-151.5 67q-81 0 -145 -47t-94 -138h-30q20 149 103.5 228.5t207.5 79.5q133 0 222 -85.5t89 -200.5q0 -83 -39 -166q-59 -131 -193 -276q-200 -219 -250 -264h285q87 0 122 6t63 26t49 56h30z " unicode="2"/>
<glyph glyph-name="three" d="M84 884q46 110 117.5 170t177.5 60q131 0 201 -85q54 -64 54 -136q0 -119 -150 -247q100 -39 151.5 -112.5t51.5 -172.5q0 -141 -90 -245q-117 -135 -340 -135q-110 0 -150 27t-40 59q0 23 19 41t45 18q20 0 41 -7q14 -4 62.5 -29.5t66.5 -29.5q30 -9 64 -9 q82 0 142.5 63.5t60.5 150.5q0 63 -28 124q-21 45 -46 68q-34 32 -94.5 58.5t-123.5 26.5h-26v24q64 8 128 46t93 91t29 116q0 83 -52 134.5t-129 51.5q-125 0 -209 -134z" unicode="3"/>
<glyph glyph-name="four" d="M767 403v-115h-146v-288h-133v288h-462v103l506 723h89v-711h146zM488 403v541l-383 -541h383z" unicode="4"/>
<glyph glyph-name="five" d="M716 1092l-63 -137h-329l-71 -147q213 -31 338 -158q107 -110 107 -258q0 -86 -35 -159.5t-88 -125t-119 -82.5q-92 -44 -190 -44t-142.5 33t-44.5 74q0 22 18.5 39.5t46.5 17.5q21 0 36.5 -6.5t53.5 -33.5q61 -41 123 -41q94 0 165 71t71 173q0 99 -63.5 185t-175.5 132 q-88 37 -239 42l209 425h392z" unicode="5"/>
<glyph glyph-name="six" d="M739 1114v-30q-106 -10 -173.5 -42t-133 -97t-108.5 -145t-72 -191q116 80 233 80q112 0 194 -90t82 -232q0 -137 -83 -249q-100 -137 -264 -137q-112 0 -190 74q-153 144 -153 373q0 147 58.5 279t168 234t209 137.5t185.5 35.5h47zM238 551q-14 -109 -14 -176 q0 -77 28.5 -167.5t84.5 -143.5q41 -38 100 -38q70 0 125 66t55 188q0 138 -54.5 238.5t-155.5 100.5q-30 0 -65 -13t-104 -55z" unicode="6"/>
<glyph glyph-name="seven" d="M166 1092h585v-31l-364 -1084h-90l326 983h-300q-91 0 -130 -21q-67 -37 -108 -115l-24 9z" unicode="7"/>
<glyph glyph-name="eight" d="M316 550q-129 106 -166.5 170.5t-37.5 133.5q0 106 82 183t218 77q132 0 212.5 -71.5t80.5 -163.5q0 -61 -43.5 -124.5t-180.5 -149.5q141 -110 187 -173q61 -82 61 -173q0 -115 -87.5 -196.5t-230.5 -81.5q-155 0 -242 97q-69 78 -69 171q0 72 48.5 143.5t167.5 157.5z M443 636q96 87 122 137.5t26 113.5q0 85 -47.5 132.5t-129.5 47.5t-133.5 -47.5t-51.5 -110.5q0 -42 21 -84t61 -80zM354 519q-67 -56 -99 -122.5t-32 -143.5q0 -104 56.5 -166.5t144.5 -62.5q87 0 139.5 49t52.5 119q0 58 -31 104q-57 86 -231 223z" unicode="8"/>
<glyph glyph-name="nine" d="M87 -23v30q105 2 195 49t174 164.5t117 258.5q-126 -81 -228 -81q-116 0 -198 89t-82 236q0 143 82 255q99 136 259 136q134 0 230 -111q117 -138 117 -340q0 -182 -89 -339t-249 -261q-129 -86 -282 -86h-46zM586 539q15 104 15 167q0 78 -27 168.5t-75.5 139 t-110.5 48.5q-72 0 -126 -64.5t-54 -191.5q0 -170 72 -266q52 -69 129 -69q37 0 87.5 17.5t89.5 50.5z" unicode="9"/>
<glyph glyph-name="colon" horiz-adv-x="458" d="M233 760q37 0 63 -26t26 -63t-26 -63.5t-63 -26.5t-63.5 26.5t-26.5 63.5t26.5 63t63.5 26zM231 157q38 0 64 -26.5t26 -63.5t-26.5 -63.5t-63.5 -26.5t-63 26.5t-26 63.5t26 63.5t63 26.5z" unicode=":"/>
<glyph glyph-name="semicolon" horiz-adv-x="458" d="M227 761q37 0 63 -26t26 -63t-26 -63t-63 -26t-63 26t-26 63t26 63t63 26zM114 -275v36q83 27 128.5 84.5t45.5 122.5q0 15 -7 26q-6 7 -11 7q-9 0 -39 -16q-14 -8 -31 -8q-39 0 -62.5 23.5t-23.5 64.5q0 40 30.5 68t73.5 28q53 0 94.5 -46.5t41.5 -122.5 q0 -83 -57.5 -154t-182.5 -113z" unicode=";"/>
<glyph glyph-name="less" horiz-adv-x="930" d="M30 568l866 375v-70l-745 -323l745 -327v-72l-866 378v39z" unicode="&lt;"/>
<glyph glyph-name="equal" horiz-adv-x="930" d="M30 711h868v-66h-868v66zM30 448h868v-66h-868v66z" unicode="="/>
<glyph glyph-name="greater" horiz-adv-x="930" d="M896 526l-866 -375v69l746 323l-746 327v73l866 -378v-39z" unicode="&gt;"/>
<glyph glyph-name="question" horiz-adv-x="732" d="M365 258h-33q6 101 26 167.5t82 184.5q48 91 62.5 140t14.5 98q0 103 -54.5 163t-133.5 60q-70 0 -110 -33t-40 -71q0 -30 24 -73.5t24 -65.5q0 -29 -18.5 -49t-45.5 -20q-33 0 -61 33.5t-28 93.5q0 90 78 160.5t212 70.5q166 0 244 -97q58 -71 58 -157q0 -59 -26.5 -121 t-99.5 -145q-117 -133 -143 -188t-32 -151zM354 158q38 0 64 -26.5t26 -63.5t-26.5 -63.5t-63.5 -26.5t-63 26.5t-26 63.5t26 63.5t63 26.5z" unicode="?"/>
<glyph glyph-name="at" horiz-adv-x="1518" d="M1133 771l-94 -321q-52 -180 -63.5 -228.5t-11.5 -77.5q0 -26 17.5 -43.5t43.5 -17.5q59 0 141.5 58.5t141 190.5t58.5 276q0 137 -66.5 254t-187.5 179.5t-268 62.5q-186 0 -345 -99t-252 -284t-93 -385q0 -185 81.5 -336t229.5 -229t319 -78q212 0 383 113.5t264 331.5 h47q-72 -220 -263 -357t-435 -137q-192 0 -356 90.5t-255 257t-91 365.5q0 213 100 397t280 287.5t382 103.5q166 0 300 -69t204 -201.5t70 -281.5q0 -147 -65.5 -291.5t-167 -210.5t-211.5 -66q-61 0 -92 29t-31 81q0 45 14 119q-119 -145 -190.5 -187.5t-126.5 -42.5 q-57 0 -101.5 51t-44.5 137q0 116 76.5 261t201.5 236q93 67 166 67q54 0 90 -28t48 -83l27 88zM851 738q-60 0 -122 -63q-91 -94 -156 -252q-47 -116 -47 -187q0 -51 28.5 -82.5t63.5 -31.5q47 0 98.5 35t108 109t81.5 148q46 128 46 208q0 53 -29.5 84.5t-71.5 31.5z" unicode="@"/>
<glyph glyph-name="A" horiz-adv-x="1191" d="M754 365h-422l-74 -172q-28 -63 -28 -95q0 -25 24 -44t103 -24v-30h-344v30q68 12 88 31q41 39 91 157l384 899h29l380 -909q45 -109 82.5 -141.5t104.5 -36.5v-30h-431v30q66 3 88.5 21.5t22.5 45.5q0 35 -32 111zM732 425l-185 441l-190 -441h375z" unicode="A"/>
<glyph glyph-name="B" horiz-adv-x="1100" d="M762 557q113 -24 169 -77q78 -74 78 -181q0 -82 -51.5 -156.5t-141 -108.5t-273.5 -34h-516v30h41q69 0 99 43q18 28 18 120v705q0 102 -23 128q-32 36 -94 36h-41v30h472q132 0 212 -20q121 -29 184.5 -102.5t63.5 -169.5q0 -82 -50 -147t-147 -96zM340 601 q29 -6 67.5 -9t84.5 -3q117 0 176.5 25.5t91 78t31.5 114.5q0 95 -78.5 163t-227.5 68q-81 0 -145 -18v-419zM340 79q93 -22 184 -22q146 0 222.5 65.5t76.5 162.5q0 64 -35 122.5t-113 92.5t-193 34q-50 0 -85.5 -2t-56.5 -6v-447z" unicode="B"/>
<glyph glyph-name="C" horiz-adv-x="1100" d="M993 1117l25 -372h-25q-50 167 -142.5 240.5t-222.5 73.5q-109 0 -196.5 -55.5t-138 -176t-50.5 -300.5q0 -148 47.5 -256.5t143 -166.5t217.5 -58q107 0 188 45.5t179 180.5l24 -16q-82 -146 -191.5 -213.5t-259.5 -67.5q-271 0 -420 201q-111 150 -111 353 q0 163 73 300t201.5 212.5t280.5 75.5q118 0 233 -58q34 -18 49 -18q22 0 38 15q21 22 29 61h29z" unicode="C"/>
<glyph glyph-name="D" horiz-adv-x="1191" d="M28 0v30h41q69 0 98 44q18 27 18 119v705q0 103 -22 128q-32 36 -94 36h-41v30h445q244 0 371.5 -56t205.5 -185.5t78 -299.5q0 -227 -139 -380q-155 -171 -473 -171h-488zM340 79q102 -23 171 -23q187 0 310 131.5t123 355.5q0 227 -123 357t-316 130q-73 0 -165 -23 v-928z" unicode="D"/>
<glyph glyph-name="E" horiz-adv-x="1007" d="M345 1032v-431h239q94 0 125 28q42 37 47 130h30v-380h-30q-11 80 -23 102q-14 29 -47 45t-102 16h-239v-360q0 -73 6 -88.5t22.5 -24.5t61.5 -9h185q92 0 134 12.5t81 50.5q50 50 102 151h32l-94 -274h-841v30h38q39 0 74 18q25 13 34.5 39t9.5 105v710q0 103 -21 128 q-29 32 -97 32h-38v30h841l12 -240h-31q-17 87 -37.5 119t-60.5 49q-33 12 -114 12h-299z" unicode="E"/>
<glyph glyph-name="F" horiz-adv-x="917" d="M337 1032v-429h199q69 0 100.5 30t42.5 120h29v-370h-29q-1 64 -17 93.5t-43.5 44.5t-82.5 15h-199v-343q0 -83 11 -109q8 -20 34 -35q35 -19 74 -19h39v-30h-468v30h38q68 0 98 39q20 26 20 124v705q0 83 -11 110q-8 20 -33 34q-34 20 -74 20h-38v30h812l10 -240h-28 q-21 76 -48.5 112t-68.5 52t-126 16h-241z" unicode="F"/>
<glyph glyph-name="G" horiz-adv-x="1191" d="M1012 1117l28 -345h-28q-43 129 -110 194q-98 94 -251 94q-208 0 -317 -165q-91 -139 -91 -331q0 -157 60.5 -285.5t158 -188.5t201.5 -60q60 0 116.5 15t108.5 45v316q0 82 -12.5 107.5t-38.5 38.5t-92 13v31h422v-31h-20q-63 0 -86 -42q-16 -30 -16 -117v-334 q-93 -50 -183 -73.5t-200 -23.5q-317 0 -481 203q-123 152 -123 351q0 144 69 276q82 157 226 242q120 70 283 70q60 0 108.5 -10t137.5 -43q45 -17 61 -17q15 0 26 14t13 56h30z" unicode="G"/>
<glyph glyph-name="H" horiz-adv-x="1191" d="M339 585h507v313q0 83 -10 110q-8 20 -34 34q-35 20 -73 20h-39v30h467v-30h-39q-38 0 -73 -19q-26 -13 -35 -39t-9 -106v-705q0 -83 10 -109q8 -20 33 -35q36 -19 74 -19h39v-30h-467v30h39q66 0 97 39q20 26 20 124v333h-507v-333q0 -83 10 -109q8 -20 34 -35 q35 -19 73 -19h40v-30h-468v30h39q67 0 98 39q19 26 19 124v705q0 83 -10 110q-8 20 -33 34q-36 20 -74 20h-39v30h468v-30h-40q-38 0 -73 -19q-25 -13 -34.5 -39t-9.5 -106v-313z" unicode="H"/>
<glyph glyph-name="I" horiz-adv-x="549" d="M509 30v-30h-468v30h39q67 0 98 39q19 26 19 124v705q0 83 -10 110q-8 20 -33 34q-36 20 -74 20h-39v30h468v-30h-40q-66 0 -97 -40q-20 -25 -20 -124v-705q0 -83 10 -109q8 -20 34 -35q35 -19 73 -19h40z" unicode="I"/>
<glyph glyph-name="J" horiz-adv-x="642" d="M164 1062v30h468v-30h-40q-66 0 -97 -40q-19 -25 -19 -124v-533q0 -123 -27 -199.5t-93 -133.5t-160 -57q-75 0 -118.5 37.5t-43.5 85.5q0 40 20 60q27 25 62 25q26 0 46.5 -17t51.5 -90q19 -44 48 -44q21 0 40 26.5t19 94.5v745q0 83 -10 110q-8 20 -34 34 q-35 20 -73 20h-40z" unicode="J"/>
<glyph glyph-name="K" horiz-adv-x="1191" d="M493 605l402 -400q99 -99 169 -134.5t140 -40.5v-30h-519v30q47 0 67.5 15.5t20.5 35.5q0 19 -7.5 34t-50.5 57l-377 373v-352q0 -83 11 -109q8 -20 33 -35q35 -19 74 -19h37v-30h-466v30h39q68 0 98 39q20 26 20 124v705q0 83 -11 111q-8 19 -33 33q-35 20 -74 20h-39 v30h466v-30h-37q-38 0 -74 -19q-25 -13 -34.5 -38.5t-9.5 -106.5v-334q16 16 110 103q239 219 289 292q22 32 22 56q0 19 -17 33t-57 14h-25v30h401v-30q-35 -1 -64 -10t-71 -34t-103 -82q-18 -16 -164 -165z" unicode="K"/>
<glyph glyph-name="L" horiz-adv-x="1007" d="M945 302l27 -6l-94 -296h-845v30h41q69 0 99 45q17 26 17 119v704q0 103 -23 128q-31 36 -93 36h-41v30h494v-30q-87 1 -122 -16t-47.5 -43t-12.5 -123v-686q0 -67 12 -92q10 -17 30 -25t126 -8h79q126 0 176.5 18.5t92.5 65.5t84 149z" unicode="L"/>
<glyph glyph-name="M" horiz-adv-x="1466" d="M675 0l-422 919v-730q0 -100 22 -125q29 -34 94 -34h38v-30h-380v30h39q69 0 98 42q18 25 18 117v713q0 73 -16 105q-11 23 -41.5 39t-97.5 16v30h309l397 -855l389 855h309v-30h-38q-70 0 -99 -42q-17 -26 -17 -118v-713q0 -100 22 -125q30 -34 94 -34h38v-30h-463v30 h38q70 0 98 42q18 25 18 117v730l-421 -919h-26z" unicode="M"/>
<glyph glyph-name="N" horiz-adv-x="1191" d="M-22 1092h297l667 -819v629q0 101 -23 126q-29 34 -94 34h-38v30h380v-30h-38q-70 0 -99 -42q-17 -26 -17 -118v-920h-29l-720 879v-672q0 -100 22 -125q30 -34 94 -34h39v-30h-380v30h37q71 0 99 42q18 25 18 117v759q-47 56 -71.5 73.5t-72.5 33.5q-23 7 -71 7v30z" unicode="N"/>
<glyph glyph-name="O" horiz-adv-x="1191" d="M603 1117q212 0 368 -161.5t156 -403.5q0 -249 -157 -413t-380 -164q-225 0 -378.5 160t-153.5 415q0 260 177 424q154 143 368 143zM588 1058q-147 0 -235 -109q-111 -135 -111 -396q0 -267 115 -411q87 -110 231 -110q154 0 254.5 120t100.5 378q0 281 -111 418 q-88 110 -244 110z" unicode="O"/>
<glyph glyph-name="P" horiz-adv-x="917" d="M338 511v-318q0 -103 23 -128q30 -35 92 -35h42v-30h-468v30h41q70 0 99 45q17 25 17 118v705q0 103 -22 128q-32 36 -94 36h-41v30h400q147 0 231.5 -30.5t142.5 -102t58 -169.5q0 -134 -88 -217.5t-249 -83.5q-40 0 -86 5.5t-98 16.5zM338 557q43 -8 76 -12t56 -4 q84 0 144.5 65t60.5 168q0 70 -29 131t-82 91t-120 30q-41 0 -106 -15v-454z" unicode="P"/>
<glyph glyph-name="Q" horiz-adv-x="1191" d="M726 -12q82 -142 177.5 -208.5t217.5 -76.5v-26q-112 4 -238 45t-239.5 113t-195.5 153q-116 47 -183 99q-98 78 -152.5 192t-54.5 269q0 245 158.5 407t384.5 162q214 0 370.5 -162.5t156.5 -409.5q0 -200 -111.5 -351.5t-290.5 -205.5zM591 1055q-147 0 -236 -105 q-113 -131 -113 -402q0 -265 115 -408q88 -110 234 -110q151 0 244 110q108 130 108 385q0 195 -59 329q-46 103 -122 152t-171 49z" unicode="Q"/>
<glyph glyph-name="R" horiz-adv-x="1100" d="M1114 0h-291l-370 510q-41 -1 -67 -1q-10 0 -22 0.5t-25 0.5v-317q0 -103 22 -128q31 -35 92 -35h43v-30h-468v30h41q69 0 99 45q17 25 17 118v705q0 103 -22 128q-32 36 -94 36h-41v30h398q174 0 256.5 -25.5t140 -93.5t57.5 -162q0 -101 -65.5 -175t-203.5 -105 l225 -313q78 -108 133.5 -143.5t144.5 -44.5v-30zM339 561q15 0 26.5 -0.5t18.5 -0.5q156 0 235.5 68t79.5 172q0 102 -64 166t-170 64q-46 0 -126 -15v-454z" unicode="R"/>
<glyph glyph-name="S" horiz-adv-x="917" d="M756 1117v-378h-30q-14 109 -51.5 173t-107 102t-143.5 38q-83 0 -138 -51t-55 -116q0 -50 35 -91q50 -61 237 -161q153 -82 209 -126t86 -103.5t30 -124.5q0 -124 -96 -214t-247 -90q-48 0 -90 7q-25 4 -103.5 29.5t-99.5 25.5q-20 0 -31.5 -12t-17.5 -50h-29v374h29 q21 -117 56.5 -175.5t108.5 -97t160 -38.5q100 0 158.5 53t58.5 126q0 40 -22 81t-69 76q-31 24 -171 102.5t-199.5 125.5t-90 103.5t-30.5 123.5q0 118 90 203t230 85q87 0 184 -43q45 -20 64 -20q20 0 33.5 12.5t21.5 50.5h30z" unicode="S"/>
<glyph glyph-name="T" horiz-adv-x="1007" d="M954 1092l12 -256h-31q-8 67 -24 96q-25 47 -66.5 69t-108.5 22h-154v-834q0 -100 22 -125q30 -34 94 -34h38v-30h-463v30h39q69 0 98 42q17 25 17 117v834h-131q-76 0 -108 -11q-42 -15 -72 -58.5t-35 -117.5h-31l13 256h891z" unicode="T"/>
<glyph glyph-name="U" horiz-adv-x="1191" d="M786 1062v30h387v-30h-41q-65 0 -99 -54q-17 -25 -17 -116v-443q0 -164 -32.5 -254.5t-128 -155.5t-259.5 -65q-179 0 -271.5 62t-131.5 167q-26 72 -26 269v426q0 101 -27.5 132.5t-89.5 31.5h-41v30h472v-30h-42q-68 0 -97 -43q-20 -29 -20 -121v-475q0 -64 11.5 -146 t42.5 -128t88.5 -76t140.5 -30q107 0 191.5 47t115.5 120t31 246v442q0 103 -22 128q-31 36 -93 36h-42z" unicode="U"/>
<glyph glyph-name="V" horiz-adv-x="1191" d="M1170 1092v-30q-57 -11 -87 -37q-43 -40 -76 -121l-381 -929h-29l-409 941q-32 73 -45 89q-20 25 -49.5 39t-79.5 18v30h446v-30q-75 -7 -97.5 -25.5t-22.5 -47.5q0 -41 37 -126l277 -640l258 632q38 93 38 130q0 23 -23.5 44.5t-78.5 29.5q-4 1 -14 3v30h336z" unicode="V"/>
<glyph glyph-name="W" horiz-adv-x="1556" d="M1543 1092v-30q-42 0 -69 -15.5t-51 -57.5q-16 -28 -50 -134l-305 -880h-32l-249 698l-247 -698h-29l-324 906q-36 102 -46 120q-16 31 -44 46t-75 15v30h404v-30h-19q-43 0 -65.5 -19.5t-22.5 -46.5q0 -28 35 -130l215 -612l181 520l-32 92l-26 73q-17 41 -38 71 q-10 16 -25 26q-20 15 -41 21q-15 5 -48 5v30h425v-30h-29q-45 0 -66 -19.5t-21 -52.5q0 -41 37 -143l209 -593l207 601q36 100 36 138q0 19 -11.5 35t-29.5 23q-31 11 -80 11v30h326z" unicode="W"/>
<glyph glyph-name="X" horiz-adv-x="1191" d="M673 605l234 -350q98 -145 145 -183t119 -42v-30h-468v30q46 1 69 9q17 8 28 22.5t11 30.5q0 18 -8 37q-5 13 -44 71l-185 280l-229 -293q-36 -47 -43 -62.5t-7 -32.5q0 -26 21.5 -43t82.5 -19v-30h-387v30q41 4 71 17q50 21 95 56t103 109l258 325l-215 315 q-88 128 -149 167.5t-141 42.5v30h505v-30q-65 -3 -88.5 -21.5t-23.5 -40.5q0 -30 38 -87l168 -250l194 245q34 44 41.5 60t7.5 33t-10 29q-12 17 -30.5 24t-76.5 8v30h387v-30q-46 -3 -75 -15q-43 -18 -79 -49.5t-102 -116.5z" unicode="X"/>
<glyph glyph-name="Y" horiz-adv-x="1191" d="M786 1092h380v-30h-20q-21 0 -61.5 -18.5t-73.5 -53t-81 -113.5l-263 -414v-274q0 -100 22 -125q31 -34 97 -34h35v-30h-464v30h39q69 0 98 42q18 25 18 117v259l-299 457q-54 80 -72.5 100.5t-78.5 48.5q-16 8 -47 8v30h467v-30h-24q-38 0 -69.5 -18t-31.5 -53 q0 -29 49 -105l228 -351l214 336q48 76 48 113q0 22 -11.5 40t-33.5 28t-65 10v30z" unicode="Y"/>
<glyph glyph-name="Z" horiz-adv-x="1007" d="M948 1092l-717 -1026h448q103 0 158 45t98 183l26 -5l-51 -289h-889v30l700 996h-349q-87 0 -126 -18.5t-59.5 -54.5t-37.5 -134h-31l23 273h807z" unicode="Z"/>
<glyph glyph-name="bracketleft" horiz-adv-x="549" d="M489 -327h-354v1444h354v-64h-233v-1317h233v-63z" unicode="["/>
<glyph glyph-name="backslash" horiz-adv-x="458" d="M67 1145l394 -1168h-64l-395 1168h65z" unicode="\"/>
<glyph glyph-name="bracketright" horiz-adv-x="549" d="M60 1117h355v-1445h-355v64h234v1317h-234v64z" unicode="]"/>
<glyph glyph-name="asciicircum" horiz-adv-x="774" d="M401 1114l342 -577h-74l-282 472l-282 -472h-75l347 577h24z" unicode="^"/>
<glyph glyph-name="underscore" d="M839 -356h-853v68h853v-68z" unicode="_"/>
<glyph glyph-name="grave" horiz-adv-x="549" d="M95 1119h180l85 -278h-28z" unicode="`"/>
<glyph glyph-name="a" horiz-adv-x="732" d="M469 106q-113 -87 -142 -101q-44 -20 -93 -20q-76 0 -125.5 52t-49.5 138q0 54 24 93q33 55 114.5 103t271.5 118v29q0 110 -35 151t-102 41q-50 0 -80 -27q-31 -28 -31 -63l2 -47q0 -37 -19 -57t-49 -20t-49 21t-19 57q0 69 71 127t199 58q98 0 161 -33q47 -25 70 -78 q14 -35 14 -142v-250q0 -105 4 -129t13.5 -32t21.5 -8q13 0 22 6q17 10 66 58v-45q-91 -120 -173 -120q-39 0 -62.5 27t-24.5 93zM469 159v281q-121 -49 -157 -69q-63 -35 -90.5 -74t-27.5 -84q0 -58 34.5 -96.5t79.5 -38.5q61 0 161 81z" unicode="a"/>
<glyph glyph-name="b" d="M254 610q107 149 231 149q113 0 197.5 -97t84.5 -265q0 -197 -130 -316q-112 -104 -250 -104q-64 0 -130.5 23.5t-135.5 70.5v764q0 125 -6 154t-19 39.5t-32 10.5q-23 0 -57 -13l-11 29l221 90h37v-535zM254 559v-441q41 -41 84.5 -61.5t89.5 -20.5q74 0 137 80.5 t63 234.5q0 142 -63 218t-144 76q-43 0 -85 -22q-33 -16 -82 -64z" unicode="b"/>
<glyph glyph-name="c" horiz-adv-x="732" d="M678 280q-30 -146 -117 -224.5t-192 -78.5q-126 0 -219.5 105.5t-93.5 285.5q0 174 103.5 282.5t248.5 108.5q109 0 179 -57.5t70 -119.5q0 -31 -20 -49.5t-55 -18.5q-47 0 -72 30q-13 17 -17.5 64.5t-32.5 72.5q-29 24 -78 24q-81 0 -130 -59q-65 -79 -65 -209 q0 -132 64.5 -233t175.5 -101q79 0 141 54q45 37 86 134z" unicode="c"/>
<glyph glyph-name="d" d="M572 83q-54 -56 -105.5 -81t-110.5 -25q-121 0 -211 101.5t-90 259.5q0 159 99.5 290.5t256.5 131.5q98 0 161 -62v136q0 126 -6 155t-18.5 39.5t-32.5 10.5q-21 0 -55 -13l-11 29l220 90h36v-853q0 -129 6 -158t19.5 -40t31.5 -11q21 0 57 14l9 -29l-219 -91h-37v106z M572 139v380q-4 55 -28.5 100t-64 68t-77.5 23q-71 0 -127 -64q-73 -83 -73 -244q0 -163 71 -249.5t158 -86.5q73 0 141 73z" unicode="d"/>
<glyph glyph-name="e" horiz-adv-x="732" d="M175 460q0 -165 80 -258q81 -93 189 -93q73 0 126.5 39.5t89.5 136.5l25 -16q-17 -110 -98 -201t-204 -91q-133 0 -227.5 103.5t-94.5 278.5q0 189 97 295t244 106q124 0 203.5 -81.5t79.5 -218.5h-510zM175 506h342q-4 71 -17 100q-20 45 -60 71t-83 26q-67 0 -120 -52 t-62 -145z" unicode="e"/>
<glyph glyph-name="f" horiz-adv-x="549" d="M340 679v-484q0 -103 22 -131q30 -35 80 -35h67v-29h-441v29h33q33 0 59.5 16t36.5 43.5t10 106.5v484h-143v58h143v49q0 110 35.5 186.5t108 123.5t163.5 47q85 0 156 -55q46 -36 46 -81q0 -24 -20.5 -45.5t-45.5 -21.5q-18 0 -38.5 13.5t-50.5 57.5t-55 59t-55 15 q-37 0 -63 -19.5t-37 -61t-11 -213.5v-54h190v-58h-190z" unicode="f"/>
<glyph glyph-name="g" d="M249 269q-68 33 -104 92t-36 131q0 109 82.5 188t211.5 79q105 0 182 -51h156q35 0 40.5 -2t8.5 -7q5 -8 5 -26q0 -21 -4 -29q-3 -4 -9 -6.5t-41 -2.5h-95q45 -58 45 -148q0 -103 -79 -176.5t-212 -73.5q-55 0 -112 17q-35 -31 -47.5 -54t-12.5 -39q0 -14 13 -26.5 t52 -18.5q23 -3 113 -6q166 -4 215 -11q75 -10 119.5 -55.5t44.5 -111.5q0 -91 -85 -170q-126 -118 -328 -118q-155 0 -263 70q-60 40 -60 84q0 19 9 39q14 29 56 82q6 8 82 87q-41 25 -58.5 45t-17.5 45q0 28 23 66t106 107zM389 720q-60 0 -100 -47.5t-40 -145.5 q0 -127 54 -197q42 -53 107 -53q61 0 100.5 46t39.5 144q0 128 -56 200q-41 53 -105 53zM241 0q-38 -41 -57.5 -76.5t-19.5 -65.5q0 -38 47 -67q80 -50 233 -50q144 0 213 51t69 109q0 42 -41 60q-42 17 -166 20q-181 5 -278 19z" unicode="g"/>
<glyph glyph-name="h" d="M268 1145v-540q89 99 141.5 126.5t104.5 27.5q63 0 108 -34.5t67 -108.5q15 -52 15 -189v-260q0 -70 12 -96q8 -19 27 -30.5t71 -11.5v-29h-362v29h17q51 0 71 15.5t28 46.5q3 13 3 76v260q0 121 -12.5 159t-40 57t-66.5 19t-81.5 -21t-102.5 -85v-389q0 -76 8.5 -94.5 t31.5 -31t79 -12.5v-29h-365v29q49 0 77 15q16 8 25.5 30.5t9.5 92.5v667q0 126 -6 155t-18.5 39.5t-33.5 10.5q-16 0 -54 -13l-12 29l221 90h37z" unicode="h"/>
<glyph glyph-name="i" horiz-adv-x="458" d="M239 1145q34 0 57.5 -24t23.5 -58q0 -33 -23.5 -57.5t-57.5 -24.5t-58 24.5t-24 57.5q0 34 23.5 58t58.5 24zM306 759v-592q0 -70 10 -92.5t29.5 -34t72.5 -11.5v-29h-358v29q54 0 72.5 10.5t29 34.5t10.5 93v284q0 120 -7 155q-6 26 -18 36t-33 10q-22 0 -54 -12l-12 29 l222 90h36z" unicode="i"/>
<glyph glyph-name="j" horiz-adv-x="458" d="M238 1146q35 0 59 -24.5t24 -58.5t-24 -58.5t-59 -24.5q-34 0 -58 24.5t-24 58.5t24 58.5t58 24.5zM308 759v-742q0 -189 -80.5 -281t-209.5 -92q-74 0 -109 26.5t-35 54.5q0 29 19.5 49t46.5 20q21 0 42 -11q14 -5 53 -40t66 -35q19 0 37.5 15t27.5 50t9 151v525 q0 122 -8 156q-5 27 -17 37t-33 10q-23 0 -55 -12l-11 29l222 90h35z" unicode="j"/>
<glyph glyph-name="k" d="M270 1145v-733l187 170q60 55 69 69q7 10 7 20q0 16 -13.5 27.5t-43.5 13.5v25h320v-25q-66 -2 -110 -20.5t-96 -66.5l-189 -174l189 -239q79 -99 106 -126q39 -38 68 -49q20 -8 70 -8v-29h-358v29q30 1 41 9.5t11 23.5q0 19 -32 60l-226 289v-245q0 -72 10 -94.5 t28.5 -32t80.5 -10.5v-29h-375v29q56 0 84 14q17 9 26 27q12 27 12 92v671q0 128 -5.5 156.5t-18.5 39.5t-34 11q-17 0 -51 -14l-13 29l219 90h37z" unicode="k"/>
<glyph glyph-name="l" horiz-adv-x="458" d="M305 1145v-978q0 -70 10 -92.5t31 -34t78 -11.5v-29h-361v29q51 0 69.5 10.5t28.5 34.5t10 93v669q0 125 -5.5 153.5t-18 39t-31.5 10.5q-21 0 -53 -13l-14 29l220 90h36z" unicode="l"/>
<glyph glyph-name="m" horiz-adv-x="1282" d="M270 602q81 81 95 93q37 30 78.5 47t82.5 17q70 0 120 -40t66 -117q83 97 140.5 127t117.5 30q59 0 104.5 -30t71.5 -99q18 -46 18 -146v-317q0 -70 10 -95q9 -18 30.5 -30.5t70.5 -12.5v-29h-364v29h16q47 0 74 18q18 13 26 42q3 13 3 78v317q0 90 -21 127 q-32 52 -101 52q-43 0 -86 -21.5t-104 -79.5l-2 -9l2 -35v-351q0 -76 8.5 -94.5t32 -31t79.5 -12.5v-29h-373v29q61 0 84 14.5t32 43.5q4 14 4 80v317q0 90 -26 129q-36 52 -99 52q-44 0 -86 -23q-67 -36 -104 -80v-395q0 -73 10.5 -94.5t30 -32.5t79.5 -11v-29h-364v29 q50 0 70.5 11t31 34.5t10.5 92.5v281q0 122 -8 157q-5 27 -17 37t-33 10q-23 0 -54 -12l-12 29l222 90h34v-157z" unicode="m"/>
<glyph glyph-name="n" d="M266 603q130 156 248 156q60 0 103.5 -30t69.5 -99q17 -49 17 -149v-314q0 -70 12 -95q9 -20 28.5 -31.5t72.5 -11.5v-29h-365v29h16q51 0 71.5 15.5t28.5 46.5q4 12 4 76v302q0 100 -26.5 145.5t-88.5 45.5q-96 0 -191 -105v-388q0 -75 9 -93q12 -23 31.5 -34t79.5 -11 v-29h-364v29h16q56 0 76 28.5t20 109.5v273q0 133 -6 162t-18.5 39.5t-33.5 10.5q-23 0 -54 -12l-12 29l222 90h34v-156z" unicode="n"/>
<glyph glyph-name="o" d="M412 759q168 0 269 -127q86 -109 86 -250q0 -99 -47.5 -200t-130.5 -153t-186 -52q-166 0 -265 133q-82 112 -82 251q0 102 50 202t132 148t174 48zM387 707q-42 0 -85.5 -25.5t-70 -89t-26.5 -163.5q0 -161 64 -277.5t169 -116.5q78 0 128.5 64t50.5 221q0 197 -84 310 q-57 77 -146 77z" unicode="o"/>
<glyph glyph-name="p" d="M-2 664l227 92h31v-172q57 97 114.5 136t121.5 39q111 0 185 -87q91 -106 91 -277q0 -191 -110 -315q-90 -103 -227 -103q-59 0 -103 17q-32 12 -72 49v-225q0 -76 9.5 -96.5t32 -32.5t83.5 -12v-30h-387v30h20q45 -1 76 17q15 9 23.5 28.5t8.5 100.5v697q0 72 -6.5 91 t-20.5 29t-38 10q-19 0 -49 -12zM256 536v-275q0 -90 7 -118q12 -46 55.5 -81.5t110.5 -35.5q81 0 130 63q66 82 66 231q0 169 -74 260q-52 62 -123 62q-38 0 -76 -19q-29 -14 -96 -87z" unicode="p"/>
<glyph glyph-name="q" d="M704 759v-948q0 -71 10 -91t30.5 -31.5t79.5 -11.5v-30h-372v30h16q45 0 68 13q16 9 26 32t10 89v317q-74 -87 -128.5 -119t-113.5 -32q-107 0 -191 97.5t-84 261.5q0 187 111 305t268 118q46 0 84.5 -13t69.5 -38q46 22 89 51h27zM572 179v346q0 60 -16 94.5t-56 59 t-91 24.5q-90 0 -154.5 -76.5t-64.5 -232.5q0 -148 65.5 -225.5t158.5 -77.5q47 0 84 20.5t74 67.5z" unicode="q"/>
<glyph glyph-name="r" horiz-adv-x="549" d="M267 759v-166q93 166 190 166q45 0 73.5 -27t28.5 -62q0 -32 -20.5 -53.5t-49.5 -21.5t-64 27.5t-51 27.5q-15 0 -32 -16q-36 -33 -75 -108v-354q0 -61 16 -92q10 -22 36.5 -36.5t76.5 -14.5v-29h-377v29q56 0 83 18q20 13 28 41q4 13 4 78v286q0 128 -5 153t-19 36 t-35 11q-25 0 -56 -12l-9 29l223 90h34z" unicode="r"/>
<glyph glyph-name="s" horiz-adv-x="642" d="M528 759v-251h-26q-31 118 -79 161t-122 43q-56 0 -91 -30t-35 -66q0 -45 26 -77q25 -33 102 -70l117 -58q164 -79 164 -210q0 -100 -76.5 -162t-170.5 -62q-67 0 -154 25q-27 8 -44 8q-18 0 -29 -21h-26v263h26q23 -113 86.5 -170t142.5 -57q55 0 90 32.5t35 78.5 q0 56 -39 93.5t-155.5 95.5t-152.5 105q-36 46 -36 116q0 91 62 152t161 61q44 0 106 -18q41 -12 54 -12t20.5 5.5t17.5 24.5h26z" unicode="s"/>
<glyph glyph-name="t" horiz-adv-x="458" d="M266 980v-243h172v-56h-172v-478q0 -72 20.5 -97t52.5 -25q26 0 51 16.5t39 49.5h31q-28 -79 -79.5 -119t-105.5 -40q-38 0 -73 20.5t-52 58.5t-17 118v496h-117v27q44 17 90.5 59.5t82.5 100.5q19 30 52 112h25z" unicode="t"/>
<glyph glyph-name="u" d="M698 737v-446q0 -128 6 -157t19.5 -40t30.5 -11q25 0 57 14l11 -29l-221 -91h-36v157q-95 -103 -145 -130t-105 -27q-62 0 -107.5 36t-63.5 92.5t-18 159.5v329q0 52 -11 72.5t-33 31t-80 10.5v29h258v-493q0 -103 36 -135.5t86 -32.5q35 0 79 22t104 83v418q0 63 -23 85 t-95 24v29h251z" unicode="u"/>
<glyph glyph-name="v" d="M14 737h347v-29h-23q-31 0 -47.5 -15.5t-16.5 -41.5q0 -28 17 -67l171 -407l172 423q19 45 19 68q0 11 -7 19q-8 12 -22 16.5t-56 4.5v29h241v-29q-42 -4 -58 -17q-28 -24 -51 -81l-261 -633h-33l-264 623q-17 43 -33 62t-41 32q-14 7 -54 14v29z" unicode="v"/>
<glyph glyph-name="w" horiz-adv-x="1191" d="M10 737h310v-29q-43 -4 -56.5 -16t-13.5 -34q0 -25 14 -61l158 -424l158 345l-41 109q-20 48 -51 67q-18 11 -66 14v29h351v-29q-58 -3 -82 -21q-16 -13 -16 -41q0 -16 6 -33l167 -424l156 408q16 44 16 70q0 15 -15.5 27t-61.5 14v29h232v-29q-70 -11 -103 -95 l-246 -636h-33l-184 471l-215 -471h-30l-237 620q-23 59 -45.5 79.5t-71.5 31.5v29z" unicode="w"/>
<glyph glyph-name="x" d="M22 737h347v-29q-33 0 -46.5 -11.5t-13.5 -29.5q0 -20 28 -60q9 -13 27 -40l52 -84l61 84q58 79 58 100q0 17 -14 29t-44 12v29h249v-29q-39 -3 -68 -22q-40 -28 -108 -119l-101 -135l184 -264q67 -97 96 -117t75 -22v-29h-348v29q37 0 57 16q15 11 15 30q0 18 -51 93 l-108 158l-119 -158q-54 -73 -54 -87q0 -19 18 -34.5t54 -17.5v-29h-241v29q29 4 51 20q31 23 103 119l155 206l-140 202q-60 87 -92.5 109.5t-81.5 22.5v29z" unicode="x"/>
<glyph glyph-name="y" d="M10 737h343v-29h-17q-36 0 -54 -16t-18 -39q0 -32 27 -87l179 -372l165 407q14 33 14 66q0 14 -6 21q-6 9 -20 14.5t-48 5.5v29h240v-29q-30 -4 -46 -13.5t-36 -36.5q-7 -11 -27 -61l-300 -736q-44 -107 -114.5 -162t-135.5 -55q-47 0 -78 27.5t-31 62.5q0 34 22.5 54.5 t60.5 20.5q27 0 73 -17q32 -13 40 -13q24 0 52.5 25t57.5 97l53 128l-265 556q-12 25 -39 62q-20 28 -33 38q-18 13 -59 23v29z" unicode="y"/>
<glyph glyph-name="z" horiz-adv-x="732" d="M692 226l-9 -226h-650v29l489 652h-241q-78 0 -102 -10t-40 -38q-21 -41 -25 -100h-32l5 204h618v-29l-494 -654h269q84 0 114.5 14t48.5 50q13 25 22 108h27z" unicode="z"/>
<glyph glyph-name="braceleft" horiz-adv-x="791" d="M677 -328v-28q-134 19 -218.5 109.5t-84.5 200.5q0 58 18.5 135t18.5 119q0 58 -48.5 108.5t-134.5 61.5v33q86 12 134.5 61.5t48.5 108.5q0 43 -18.5 119.5t-18.5 135.5q0 109 84.5 200t218.5 109v-28q-94 -23 -138 -74t-44 -112q0 -48 18 -125.5t18 -132.5 q0 -81 -59.5 -157.5t-177.5 -118.5q116 -43 176.5 -121t60.5 -159q0 -55 -18 -132.5t-18 -125.5q0 -61 44 -112t138 -75z" unicode="{"/>
<glyph glyph-name="bar" horiz-adv-x="330" d="M196 1145v-1501h-66v1501h66z" unicode="|"/>
<glyph glyph-name="braceright" horiz-adv-x="791" d="M142 1117v28q135 -18 219 -108.5t84 -201.5q0 -58 -18.5 -134.5t-18.5 -119.5q0 -58 49 -108t135 -62v-33q-86 -11 -135 -61.5t-49 -108.5q0 -42 18.5 -119t18.5 -135q0 -109 -84 -200t-219 -110v28q95 24 138.5 74.5t43.5 112.5q0 48 -18.5 125.5t-18.5 131.5 q0 82 60 158.5t179 118.5q-116 43 -177.5 121t-61.5 159q0 55 18.5 132.5t18.5 125.5q0 61 -43.5 112t-138.5 74z" unicode="}"/>
<glyph glyph-name="asciitilde" horiz-adv-x="892" d="M839 543h36q-3 -104 -59.5 -163.5t-137.5 -59.5q-37 0 -80 12.5t-220 85.5q-124 51 -177 51q-56 0 -94.5 -34.5t-54.5 -112.5h-36q5 109 59.5 166.5t128.5 57.5q36 0 73 -11q84 -25 220.5 -83t191.5 -58q60 0 101.5 38.5t48.5 110.5z" unicode="~"/>
<glyph glyph-name="uni00A0" horiz-adv-x="412" unicode=" "/>
<glyph glyph-name="exclamdown" horiz-adv-x="549" d="M275 784q38 0 64 -26t26 -63t-26.5 -63t-63.5 -26t-62.5 26t-25.5 63t25.5 63t62.5 26zM259 473h31l71 -653q4 -42 4 -63q0 -51 -26.5 -82t-63.5 -31q-38 0 -64.5 30.5t-26.5 92.5q0 19 4 53z" unicode="¡"/>
<glyph glyph-name="cent" d="M725 281q-38 -151 -132 -235q-72 -65 -178 -65q-65 0 -130 28l-114 -314h-57l125 344q-65 61 -94 124q-41 88 -41 201q0 204 126 314q97 84 220 84q16 0 49 -3l113 308h58l-117 -323q81 -36 111 -70q39 -44 39 -93q0 -31 -19.5 -49.5t-56.5 -18.5q-44 0 -69 30 q-15 18 -21 66q-3 25 -14 53l-183 -508q45 -31 75 -41q23 -8 56 -8q49 0 94 20.5t68.5 48t66.5 117.5zM298 201l179 495q-22 10 -48 10q-82 0 -130 -60q-66 -80 -66 -215q0 -61 14 -111.5t51 -118.5z" unicode="¢"/>
<glyph glyph-name="sterling" d="M582 530h-208q1 -37 1 -54q0 -76 -11 -140.5t-39 -147.5q158 -51 181 -56q41 -10 82 -10q66 0 108 31t62 98l28 -7q-16 -130 -82.5 -196.5t-148.5 -66.5q-54 0 -98.5 19.5t-163.5 108.5q-32 -64 -69.5 -96t-80.5 -32q-40 0 -67 27.5t-27 76.5q0 53 37 89t95 36 q14 0 31 -1.5t38 -4.5q1 21 1.5 36t0.5 26q0 70 -17 264h-156v77h156q-10 120 -10 160q0 98 39 179.5t109 124.5t149 43q102 0 153 -54.5t51 -109.5q0 -26 -19.5 -46t-43.5 -20q-30 0 -50 30q-9 15 -12.5 63t-27.5 70q-25 23 -70 23q-63 0 -104.5 -50t-41.5 -176 q0 -58 9 -150q6 -60 8 -87h208v-77zM240 138q-18 12 -35 17.5t-34 5.5q-36 0 -56 -19.5t-20 -51.5q0 -29 15.5 -46t36.5 -17q27 0 52.5 25t40.5 86z" unicode="£"/>
<glyph glyph-name="currency" d="M639 820l115 115l47 -46l-116 -114q83 -106 83 -226q0 -124 -83 -229l116 -116l-47 -45l-115 116q-108 -83 -217 -83q-71 0 -138 24.5t-100 58.5l-117 -116l-45 45l116 116q-82 95 -82 227q0 127 82 228l-116 114l45 46l117 -115q42 37 106.5 59.5t123.5 22.5 q55 0 116.5 -20.5t108.5 -61.5zM412 837q-121 0 -206 -85.5t-85 -206.5q0 -118 85 -203.5t205 -85.5t206.5 86t86.5 205q0 73 -39.5 144t-109 108.5t-143.5 37.5z" unicode="¤"/>
<glyph glyph-name="yen" d="M481 342h343v-59h-343v-87q0 -90 8 -115q8 -17 28 -30q30 -18 68 -18h33v-33h-414v33h25q57 0 84 21q19 15 27 46q3 15 3 96v87h-341v59h341v116l-12 29h-329v59h303l-171 399q-30 70 -58.5 92.5t-73.5 23.5v31h355v-31q-58 -4 -77.5 -18.5t-19.5 -31.5q0 -13 15 -47 l172 -418l171 406q17 40 17 60q0 17 -17 33q-11 10 -51 14q-8 0 -22 2v31h279v-31q-49 0 -71 -19q-34 -28 -69 -106l-172 -390h312v-59h-338l-5 -13v-132z" unicode="¥"/>
<glyph glyph-name="brokenbar" horiz-adv-x="330" d="M196 1145v-598h-66v598h66zM196 242v-598h-66v598h66z" unicode="¦"/>
<glyph glyph-name="section" d="M303 679q-53 59 -76 108t-23 100q0 94 66 160.5t162 66.5q89 0 146.5 -54t57.5 -123q0 -31 -21 -56q-15 -16 -43 -16q-27 0 -44.5 18.5t-17.5 43.5q0 12 6 42q4 19 4 35q0 33 -23.5 54.5t-64.5 21.5q-58 0 -99 -41t-41 -100q0 -51 22 -85q36 -56 122 -118 q161 -117 221 -210q42 -66 42 -138q0 -73 -43 -146.5t-135 -128.5q56 -62 77.5 -107t21.5 -98q0 -98 -66 -164t-163 -66q-87 0 -144.5 55t-57.5 126q0 30 19 50.5t44 20.5t42.5 -19t17.5 -51q0 -22 -6.5 -48t-6.5 -40q0 -23 21 -38q31 -25 76 -25q54 0 98 42t44 91 q0 50 -25 90q-39 60 -140 136q-152 113 -206 199q-41 65 -41 139t43.5 146t133.5 127zM329 654q-121 -74 -121 -179q0 -56 29 -104q42 -65 159 -154q56 -42 98 -81q123 75 123 177q0 52 -35 109t-146 143q-66 51 -107 89z" unicode="§"/>
<glyph glyph-name="dieresis" horiz-adv-x="549" d="M417 1076q36 0 61.5 -25.5t25.5 -61.5q0 -37 -25.5 -62t-61.5 -25t-62 25t-26 62q0 36 26 61.5t62 25.5zM133 1076q37 0 62.5 -25.5t25.5 -61.5q0 -37 -26 -62t-61 -25q-37 0 -62.5 25t-25.5 62q0 36 25.5 61.5t61.5 25.5z" unicode="¨"/>
<glyph glyph-name="copyright" horiz-adv-x="1253" d="M626 1117q144 0 281 -74t214 -211t77 -286q0 -148 -75.5 -284t-212 -211.5t-284.5 -75.5t-283.5 75.5t-211 211.5t-75.5 284q0 149 76.5 286t213.5 211t280 74zM626 1067q-131 0 -255.5 -67.5t-195 -192.5t-70.5 -261q0 -135 69 -259t193 -193.5t259 -69.5 q136 0 260 69.5t193 193.5t69 259q0 136 -70 261t-195 192.5t-257 67.5zM909 913l16 -226h-31q-29 96 -92.5 143t-151.5 47q-66 0 -117.5 -27t-84.5 -73q-25 -35 -41 -92t-16 -121q0 -170 73.5 -251t193.5 -81q157 0 251 130l30 -15q-112 -163 -309 -163q-161 0 -266.5 104 t-105.5 253q0 155 112.5 264t287.5 109q38 0 62.5 -5t86.5 -26q21 -6 30 -6q13 0 22 6.5t18 29.5h32z" unicode="©"/>
<glyph glyph-name="ordfeminine" horiz-adv-x="455" d="M274 950q0 88 -21.5 115t-64.5 27q-38 0 -56.5 -17.5t-18.5 -54.5q0 -36 -13.5 -52.5t-33.5 -16.5q-19 0 -32 13.5t-13 34.5q0 44 45.5 79.5t142.5 35.5q74 0 114 -25t51 -51.5t11 -87.5v-176q0 -42 1 -49q3 -10 9 -16q6 -5 11 -5q11 0 46 25v-39q-58 -43 -78.5 -51.5 t-41.5 -8.5q-20 0 -35.5 16.5t-22.5 60.5q-51 -36 -94.5 -54.5t-78.5 -18.5q-43 0 -74.5 30.5t-31.5 68.5q0 36 18 62q24 37 86 75q42 25 175 80zM274 919q-97 -32 -132 -70.5t-35 -77.5q0 -27 20.5 -48t51.5 -21q17 0 41 9t54 26v182z" unicode="ª"/>
<glyph glyph-name="guillemotleft" d="M409 -6h-46l-311 380l311 378h46l-196 -378zM773 -6h-47l-317 380l317 378h47l-196 -378z" unicode="«"/>
<glyph glyph-name="logicalnot" horiz-adv-x="930" d="M29 707h869v-327h-63v262h-806v65z" unicode="¬"/>
<glyph glyph-name="uni00AD" horiz-adv-x="549" d="M67 431h416v-122h-416v122z" unicode="­"/>
<glyph glyph-name="registered" horiz-adv-x="1253" d="M626 1117q144 0 281 -74t214 -211t77 -286q0 -148 -75.5 -284t-212 -211.5t-284.5 -75.5t-283.5 75.5t-211 211.5t-75.5 284q0 149 76.5 286t213.5 211t280 74zM626 1067q-131 0 -255.5 -67.5t-195 -192.5t-70.5 -261q0 -135 69 -259t193 -193.5t259 -69.5 q136 0 260 69.5t193 193.5t69 259q0 136 -70 261t-195 192.5t-257 67.5zM311 897h310q117 0 178.5 -53t61.5 -128q0 -61 -41.5 -107t-137.5 -71l168 -240q31 -43 55 -59q15 -10 42 -12v-27h-148l-236 326h-61v-248q4 -27 22.5 -39t72.5 -12v-27h-296v27q39 0 55 9.5t23 26.5 q6 13 6 75v421q0 60 -3 70q-5 19 -20 29t-51 10v29zM502 561q95 0 138.5 18.5t67 52t23.5 76.5q0 65 -45.5 109t-116.5 44q-30 0 -67 -13v-287z" unicode="®"/>
<glyph glyph-name="macron" d="M839 1177h-853v68h853v-68z" unicode="¯"/>
<glyph glyph-name="degree" horiz-adv-x="659" d="M326 1116q104 0 176 -72.5t72 -175.5q0 -102 -72.5 -174.5t-175.5 -72.5q-102 0 -174.5 72.5t-72.5 174.5q0 103 72 175.5t175 72.5zM326 1048q-75 0 -127 -52.5t-52 -126.5t52 -127t127 -53q74 0 127 53t53 127t-52.5 126.5t-127.5 52.5z" unicode="°"/>
<glyph glyph-name="plusminus" horiz-adv-x="905" d="M6 114v65h401v336h-401v66h401v400h65v-400h402v-66h-402v-336h403v-65h-869z" unicode="±"/>
<glyph glyph-name="twosuperior" horiz-adv-x="494" d="M463 657l-49 -122h-398v23q199 154 264 252q40 59 40 115q0 49 -33 82.5t-84 33.5q-46 0 -80.5 -24t-52.5 -71h-36q11 79 62 123.5t133 44.5q85 0 138.5 -46.5t53.5 -104.5q0 -53 -39 -114q-60 -94 -237 -237h150q70 0 93 9.5t39 35.5h36z" unicode="²"/>
<glyph glyph-name="threesuperior" horiz-adv-x="494" d="M44 989q29 60 65 87q52 38 120 38q74 0 117 -37t43 -81q0 -55 -85 -125q58 -21 87.5 -60t29.5 -86q0 -83 -69 -143t-198 -60q-68 0 -98 20q-21 13 -21 31q0 14 13.5 25t34.5 11q22 0 65 -19t73 -19q45 0 77.5 31.5t32.5 74.5q0 36 -21.5 69t-55.5 46q-48 19 -86 19h-24 v22q62 0 104.5 38t42.5 87q0 39 -27 64t-71 25q-68 0 -118 -71z" unicode="³"/>
<glyph glyph-name="acute" horiz-adv-x="549" d="M455 1119l-238 -278h-27l85 278h180z" unicode="´"/>
<glyph glyph-name="mu1" horiz-adv-x="950" d="M158 737h132v-429q0 -116 14 -159q11 -32 39 -52.5t61 -20.5q95 0 190 108v553h133v-526q0 -81 6 -106q6 -19 19.5 -30t29.5 -11q21 0 35 18q21 25 30 82h34q-8 -97 -51.5 -142t-108.5 -45q-63 0 -96 47q-24 35 -31 106q-70 -82 -130.5 -117.5t-122.5 -35.5q-42 0 -74 17 q-22 13 -50 52q-1 -25 -1 -37q0 -64 27 -193q11 -49 11 -83q0 -39 -23 -64t-53 -25t-50 23.5t-20 64.5q0 37 23 133q16 64 18 83q10 83 10 145q0 4 -1 60v584z" unicode="µ"/>
<glyph glyph-name="paragraph" horiz-adv-x="747" d="M642 1047v-1403h-58v1403h-150v-1403h-59v840q-154 6 -230 40.5t-116 105.5t-40 160q0 88 34 145q47 77 124.5 117t203.5 40h398v-45h-107z" unicode="¶"/>
<glyph glyph-name="uni00B7" horiz-adv-x="412" d="M206 635q38 0 63.5 -26t25.5 -63t-26 -63.5t-63 -26.5t-63 26.5t-26 63.5t26 63t63 26z" unicode="·"/>
<glyph glyph-name="cedilla" horiz-adv-x="549" d="M291 13h48l-40 -64q50 -13 75 -43.5t25 -73.5q0 -58 -48 -102t-125 -44q-30 0 -75 6v34q22 -3 38 -3q41 0 69.5 27t28.5 62q0 24 -18.5 41.5t-46.5 17.5q-8 0 -21 -1z" unicode="¸"/>
<glyph glyph-name="onesuperior" horiz-adv-x="494" d="M109 1044l166 70h28v-476q0 -49 5 -60q4 -7 12 -11q13 -7 64 -7v-25h-262v25q52 0 65 6q9 4 13 13t4 59v301q0 57 -4 75q-2 13 -8 18.5t-16 5.5q-16 0 -54 -16z" unicode="¹"/>
<glyph glyph-name="ordmasculine" horiz-adv-x="511" d="M261 1114q100 0 165.5 -68t65.5 -168t-71.5 -172t-170.5 -72q-95 0 -161 65.5t-66 165.5q0 111 66.5 180t171.5 69zM238 1080q-42 0 -71.5 -36.5t-29.5 -115.5q0 -128 55 -208q32 -45 83 -45q45 0 75.5 35.5t30.5 113.5q0 126 -57 206q-36 50 -86 50z" unicode="º"/>
<glyph glyph-name="guillemotright" d="M415 752h46l312 -380l-312 -378h-46l197 378zM52 752h46l317 -380l-317 -378h-46l195 378z" unicode="»"/>
<glyph glyph-name="onequarter" horiz-adv-x="1236" d="M108 1044l165 70h28v-476q0 -49 5 -60q4 -7 13 -11q13 -7 63 -7v-25h-261v25q51 0 64 6q10 4 14 13t4 59v301q0 57 -4 75q-3 13 -9 18.5t-15 5.5q-16 0 -54 -16zM1040 1114l-752 -1157h-72l752 1157h72zM1208 180v-65h-87v-147h-94v147h-276v59l303 374h67v-368h87z M1027 180v255l-209 -255h209z" unicode="¼"/>
<glyph glyph-name="onehalf" horiz-adv-x="1236" d="M108 1044l165 70h28v-476q0 -49 5 -60q4 -7 13 -11q13 -7 63 -7v-25h-261v25q51 0 64 6q10 4 14 13t4 59v301q0 57 -4 75q-3 13 -9 18.5t-15 5.5q-16 0 -54 -16zM1021 1114l-753 -1157h-72l753 1157h72zM1203 91l-49 -123h-398v24q199 155 264 252q40 59 40 115 q0 49 -33.5 82.5t-83.5 33.5q-46 0 -80.5 -24t-52.5 -71h-36q11 78 62 123t132 45q86 0 139.5 -47t53.5 -104q0 -53 -39 -114q-60 -94 -237 -237h150q69 0 92 9t39 36h37z" unicode="½"/>
<glyph glyph-name="threequarters" horiz-adv-x="1236" d="M1028 1114l-749 -1157h-73l753 1157h69zM43 989q29 60 65 87q51 38 120 38q74 0 116.5 -37t42.5 -81q0 -55 -84 -125q58 -21 87 -60t29 -86q0 -83 -68.5 -143t-198.5 -60q-67 0 -97 20q-21 13 -21 31q0 14 13 25t34 11q23 0 65.5 -19t73.5 -19q45 0 77 31.5t32 74.5 q0 58 -45.5 96.5t-141.5 37.5v22q62 0 104.5 38t42.5 87q0 39 -26.5 64t-70.5 25q-69 0 -119 -71zM1208 180v-65h-87v-147h-93v147h-277v59l303 374h67v-368h87zM1028 180v255l-209 -255h209z" unicode="¾"/>
<glyph glyph-name="questiondown" horiz-adv-x="732" d="M364 785q37 0 63 -26t26 -63q0 -38 -26 -64t-63 -26t-63 26t-26 64q0 37 26 63t63 26zM355 504h31q-4 -100 -19.5 -158.5t-82 -198.5t-66.5 -232q0 -107 53 -165t137 -58q70 0 110.5 33t40.5 73q0 25 -25 68t-25 69q0 27 19 46t46 19q33 0 61 -33.5t28 -88.5 q0 -93 -78.5 -163.5t-214.5 -70.5q-137 0 -217.5 75.5t-80.5 179.5q0 67 23 123q35 79 121 178t110 154t29 150z" unicode="¿"/>
<glyph glyph-name="Agrave" horiz-adv-x="1191" d="M754 365h-422l-74 -172q-28 -63 -28 -95q0 -25 24 -44t103 -24v-30h-344v30q68 12 88 31q41 39 91 157l384 899h29l380 -909q45 -109 82.5 -141.5t104.5 -36.5v-30h-431v30q66 3 88.5 21.5t22.5 45.5q0 35 -32 111zM732 425l-185 441l-190 -441h375zM413 1447h180 l85 -278h-28z" unicode="À"/>
<glyph glyph-name="Aacute" horiz-adv-x="1191" d="M754 365h-422l-74 -172q-28 -63 -28 -95q0 -25 24 -44t103 -24v-30h-344v30q68 12 88 31q41 39 91 157l384 899h29l380 -909q45 -109 82.5 -141.5t104.5 -36.5v-30h-431v30q66 3 88.5 21.5t22.5 45.5q0 35 -32 111zM732 425l-185 441l-190 -441h375zM772 1447l-238 -278 h-27l85 278h180z" unicode="Á"/>
<glyph glyph-name="Acircumflex" horiz-adv-x="1191" d="M754 365h-422l-74 -172q-28 -63 -28 -95q0 -25 24 -44t103 -24v-30h-344v30q68 12 88 31q41 39 91 157l384 899h29l380 -909q45 -109 82.5 -141.5t104.5 -36.5v-30h-431v30q66 3 88.5 21.5t22.5 45.5q0 35 -32 111zM732 425l-185 441l-190 -441h375zM517 1443h149 l153 -267h-25l-220 172l-185 -172h-24z" unicode="Â"/>
<glyph glyph-name="Atilde" horiz-adv-x="1191" d="M754 365h-422l-74 -172q-28 -63 -28 -95q0 -25 24 -44t103 -24v-30h-344v30q68 12 88 31q41 39 91 157l384 899h29l380 -909q45 -109 82.5 -141.5t104.5 -36.5v-30h-431v30q66 3 88.5 21.5t22.5 45.5q0 35 -32 111zM732 425l-185 441l-190 -441h375zM361 1179h-25 q3 110 45.5 159.5t105.5 49.5q33 0 60 -11q37 -14 103 -57.5t99 -43.5q25 0 45 21.5t31 90.5h25q0 -75 -20 -119t-57.5 -68.5t-75.5 -24.5q-63 0 -158 64q-50 35 -68 42t-35 7q-33 0 -52 -29q-9 -13 -23 -81z" unicode="Ã"/>
<glyph glyph-name="Adieresis" horiz-adv-x="1191" d="M754 365h-422l-74 -172q-28 -63 -28 -95q0 -25 24 -44t103 -24v-30h-344v30q68 12 88 31q41 39 91 157l384 899h29l380 -909q45 -109 82.5 -141.5t104.5 -36.5v-30h-431v30q66 3 88.5 21.5t22.5 45.5q0 35 -32 111zM732 425l-185 441l-190 -441h375zM733 1375 q36 0 61.5 -25.5t25.5 -61.5q0 -37 -25.5 -62t-61.5 -25t-62 25t-26 62q0 36 26 61.5t62 25.5zM449 1375q37 0 62.5 -25.5t25.5 -61.5q0 -37 -26 -62t-61 -25q-37 0 -62.5 25t-25.5 62q0 36 25.5 61.5t61.5 25.5z" unicode="Ä"/>
<glyph glyph-name="Aring" horiz-adv-x="1191" d="M754 365h-422l-74 -172q-28 -63 -28 -95q0 -25 24 -44t103 -24v-30h-344v30q68 12 88 31q41 39 91 157l384 899h29l380 -909q45 -109 82.5 -141.5t104.5 -36.5v-30h-431v30q66 3 88.5 21.5t22.5 45.5q0 35 -32 111zM732 425l-185 441l-190 -441h375zM589 1369 q64 0 109 -45t45 -108q0 -65 -45 -110t-109 -45t-109 45t-45 110q0 63 44.5 108t109.5 45zM589 1314q-42 0 -70.5 -28.5t-28.5 -69.5t28.5 -70t70.5 -29q41 0 69.5 29t28.5 70t-28.5 69.5t-69.5 28.5z" unicode="Å"/>
<glyph glyph-name="AE" horiz-adv-x="1466" d="M827 1032v-431h207q92 0 130 34.5t44 123.5h29v-379h-29q-9 80 -25.5 108t-55.5 45q-19 9 -93 9h-207v-362q0 -73 5.5 -87t23 -23.5t63.5 -9.5h147q88 0 135.5 14.5t91.5 55.5q59 55 96 145h31l-87 -275h-819v30h41q66 0 98 39q19 26 19 123v231h-319l-99 -188 q-57 -106 -57 -139q0 -23 24.5 -42t102.5 -24v-30h-343v30q35 1 60.5 15.5t55 52t75.5 123.5l332 620q62 115 62 156q0 25 -22 40q-27 20 -117 25v30h894l12 -240h-27q-11 83 -41 126q-21 31 -62 46q-24 8 -110 8h-266zM672 1032l-287 -551h287v551z" unicode="Æ"/>
<glyph glyph-name="Ccedilla" horiz-adv-x="1100" d="M993 1117l25 -372h-25q-50 167 -142.5 240.5t-222.5 73.5q-109 0 -196.5 -55.5t-138 -176t-50.5 -300.5q0 -148 47.5 -256.5t143 -166.5t217.5 -58q107 0 188 45.5t179 180.5l24 -16q-82 -146 -191.5 -213.5t-259.5 -67.5q-271 0 -420 201q-111 150 -111 353 q0 163 73 300t201.5 212.5t280.5 75.5q118 0 233 -58q34 -18 49 -18q22 0 38 15q21 22 29 61h29zM562 13h48l-40 -64q50 -13 75 -43.5t25 -73.5q0 -58 -48 -102t-125 -44q-30 0 -75 6v34q22 -3 38 -3q41 0 69.5 27t28.5 62q0 24 -18.5 41.5t-46.5 17.5q-8 0 -21 -1z" unicode="Ç"/>
<glyph glyph-name="Egrave" horiz-adv-x="1007" d="M345 1032v-431h239q94 0 125 28q42 37 47 130h30v-380h-30q-11 80 -23 102q-14 29 -47 45t-102 16h-239v-360q0 -73 6 -88.5t22.5 -24.5t61.5 -9h185q92 0 134 12.5t81 50.5q50 50 102 151h32l-94 -274h-841v30h38q39 0 74 18q25 13 34.5 39t9.5 105v710q0 103 -21 128 q-29 32 -97 32h-38v30h841l12 -240h-31q-17 87 -37.5 119t-60.5 49q-33 12 -114 12h-299zM327 1447h180l85 -278h-28z" unicode="È"/>
<glyph glyph-name="Eacute" horiz-adv-x="1007" d="M345 1032v-431h239q94 0 125 28q42 37 47 130h30v-380h-30q-11 80 -23 102q-14 29 -47 45t-102 16h-239v-360q0 -73 6 -88.5t22.5 -24.5t61.5 -9h185q92 0 134 12.5t81 50.5q50 50 102 151h32l-94 -274h-841v30h38q39 0 74 18q25 13 34.5 39t9.5 105v710q0 103 -21 128 q-29 32 -97 32h-38v30h841l12 -240h-31q-17 87 -37.5 119t-60.5 49q-33 12 -114 12h-299zM687 1447l-238 -278h-27l85 278h180z" unicode="É"/>
<glyph glyph-name="Ecircumflex" horiz-adv-x="1007" d="M345 1032v-431h239q94 0 125 28q42 37 47 130h30v-380h-30q-11 80 -23 102q-14 29 -47 45t-102 16h-239v-360q0 -73 6 -88.5t22.5 -24.5t61.5 -9h185q92 0 134 12.5t81 50.5q50 50 102 151h32l-94 -274h-841v30h38q39 0 74 18q25 13 34.5 39t9.5 105v710q0 103 -21 128 q-29 32 -97 32h-38v30h841l12 -240h-31q-17 87 -37.5 119t-60.5 49q-33 12 -114 12h-299zM432 1443h149l153 -267h-25l-220 172l-185 -172h-24z" unicode="Ê"/>
<glyph glyph-name="Edieresis" horiz-adv-x="1007" d="M345 1032v-431h239q94 0 125 28q42 37 47 130h30v-380h-30q-11 80 -23 102q-14 29 -47 45t-102 16h-239v-360q0 -73 6 -88.5t22.5 -24.5t61.5 -9h185q92 0 134 12.5t81 50.5q50 50 102 151h32l-94 -274h-841v30h38q39 0 74 18q25 13 34.5 39t9.5 105v710q0 103 -21 128 q-29 32 -97 32h-38v30h841l12 -240h-31q-17 87 -37.5 119t-60.5 49q-33 12 -114 12h-299zM648 1375q36 0 61.5 -25.5t25.5 -61.5q0 -37 -25.5 -62t-61.5 -25t-62 25t-26 62q0 36 26 61.5t62 25.5zM364 1375q37 0 62.5 -25.5t25.5 -61.5q0 -37 -26 -62t-61 -25 q-37 0 -62.5 25t-25.5 62q0 36 25.5 61.5t61.5 25.5z" unicode="Ë"/>
<glyph glyph-name="Igrave" horiz-adv-x="549" d="M509 30v-30h-468v30h39q67 0 98 39q19 26 19 124v705q0 83 -10 110q-8 20 -33 34q-36 20 -74 20h-39v30h468v-30h-40q-66 0 -97 -40q-20 -25 -20 -124v-705q0 -83 10 -109q8 -20 34 -35q35 -19 73 -19h40zM96 1447h180l85 -278h-28z" unicode="Ì"/>
<glyph glyph-name="Iacute" horiz-adv-x="549" d="M509 30v-30h-468v30h39q67 0 98 39q19 26 19 124v705q0 83 -10 110q-8 20 -33 34q-36 20 -74 20h-39v30h468v-30h-40q-66 0 -97 -40q-20 -25 -20 -124v-705q0 -83 10 -109q8 -20 34 -35q35 -19 73 -19h40zM455 1447l-238 -278h-27l85 278h180z" unicode="Í"/>
<glyph glyph-name="Icircumflex" horiz-adv-x="549" d="M509 30v-30h-468v30h39q67 0 98 39q19 26 19 124v705q0 83 -10 110q-8 20 -33 34q-36 20 -74 20h-39v30h468v-30h-40q-66 0 -97 -40q-20 -25 -20 -124v-705q0 -83 10 -109q8 -20 34 -35q35 -19 73 -19h40zM200 1443h149l153 -267h-25l-220 172l-185 -172h-24z" unicode="Î"/>
<glyph glyph-name="Idieresis" horiz-adv-x="549" d="M509 30v-30h-468v30h39q67 0 98 39q19 26 19 124v705q0 83 -10 110q-8 20 -33 34q-36 20 -74 20h-39v30h468v-30h-40q-66 0 -97 -40q-20 -25 -20 -124v-705q0 -83 10 -109q8 -20 34 -35q35 -19 73 -19h40zM417 1375q36 0 61.5 -25.5t25.5 -61.5q0 -37 -25.5 -62 t-61.5 -25t-62 25t-26 62q0 36 26 61.5t62 25.5zM133 1375q37 0 62.5 -25.5t25.5 -61.5q0 -37 -26 -62t-61 -25q-37 0 -62.5 25t-25.5 62q0 36 25.5 61.5t61.5 25.5z" unicode="Ï"/>
<glyph glyph-name="Eth" horiz-adv-x="1191" d="M28 0v30h41q69 0 99 45q17 26 17 118v353h-157v59h157v293q0 103 -22 128q-32 36 -94 36h-41v30h445q253 0 374.5 -58t200.5 -184.5t79 -296.5q0 -231 -147.5 -392t-464.5 -161h-487zM341 81q102 -23 171 -23q186 0 309 131t123 356q0 226 -123 356.5t-315 130.5 q-73 0 -165 -23v-404h316v-59h-316v-465z" unicode="Ð"/>
<glyph glyph-name="Ntilde" horiz-adv-x="1191" d="M-22 1092h297l667 -819v629q0 101 -23 126q-29 34 -94 34h-38v30h380v-30h-38q-70 0 -99 -42q-17 -26 -17 -118v-920h-29l-720 879v-672q0 -100 22 -125q30 -34 94 -34h39v-30h-380v30h37q71 0 99 42q18 25 18 117v759q-47 56 -71.5 73.5t-72.5 33.5q-23 7 -71 7v30z M360 1179h-25q3 110 45.5 159.5t105.5 49.5q33 0 60 -11q37 -14 103 -57.5t99 -43.5q25 0 45 21.5t31 90.5h25q0 -75 -20 -119t-57.5 -68.5t-75.5 -24.5q-63 0 -158 64q-50 35 -68 42t-35 7q-33 0 -52 -29q-9 -13 -23 -81z" unicode="Ñ"/>
<glyph glyph-name="Ograve" horiz-adv-x="1191" d="M603 1117q212 0 368 -161.5t156 -403.5q0 -249 -157 -413t-380 -164q-225 0 -378.5 160t-153.5 415q0 260 177 424q154 143 368 143zM588 1058q-147 0 -235 -109q-111 -135 -111 -396q0 -267 115 -411q87 -110 231 -110q154 0 254.5 120t100.5 378q0 281 -111 418 q-88 110 -244 110zM411 1447h180l85 -278h-28z" unicode="Ò"/>
<glyph glyph-name="Oacute" horiz-adv-x="1191" d="M603 1117q212 0 368 -161.5t156 -403.5q0 -249 -157 -413t-380 -164q-225 0 -378.5 160t-153.5 415q0 260 177 424q154 143 368 143zM588 1058q-147 0 -235 -109q-111 -135 -111 -396q0 -267 115 -411q87 -110 231 -110q154 0 254.5 120t100.5 378q0 281 -111 418 q-88 110 -244 110zM771 1447l-238 -278h-27l85 278h180z" unicode="Ó"/>
<glyph glyph-name="Ocircumflex" horiz-adv-x="1191" d="M603 1117q212 0 368 -161.5t156 -403.5q0 -249 -157 -413t-380 -164q-225 0 -378.5 160t-153.5 415q0 260 177 424q154 143 368 143zM588 1058q-147 0 -235 -109q-111 -135 -111 -396q0 -267 115 -411q87 -110 231 -110q154 0 254.5 120t100.5 378q0 281 -111 418 q-88 110 -244 110zM516 1443h149l153 -267h-25l-220 172l-185 -172h-24z" unicode="Ô"/>
<glyph glyph-name="Otilde" horiz-adv-x="1191" d="M603 1117q212 0 368 -161.5t156 -403.5q0 -249 -157 -413t-380 -164q-225 0 -378.5 160t-153.5 415q0 260 177 424q154 143 368 143zM588 1058q-147 0 -235 -109q-111 -135 -111 -396q0 -267 115 -411q87 -110 231 -110q154 0 254.5 120t100.5 378q0 281 -111 418 q-88 110 -244 110zM359 1179h-25q3 110 45.5 159.5t105.5 49.5q33 0 60 -11q37 -14 103 -57.5t99 -43.5q25 0 45 21.5t31 90.5h25q0 -75 -20 -119t-57.5 -68.5t-75.5 -24.5q-63 0 -158 64q-50 35 -68 42t-35 7q-33 0 -52 -29q-9 -13 -23 -81z" unicode="Õ"/>
<glyph glyph-name="Odieresis" horiz-adv-x="1191" d="M603 1117q212 0 368 -161.5t156 -403.5q0 -249 -157 -413t-380 -164q-225 0 -378.5 160t-153.5 415q0 260 177 424q154 143 368 143zM588 1058q-147 0 -235 -109q-111 -135 -111 -396q0 -267 115 -411q87 -110 231 -110q154 0 254.5 120t100.5 378q0 281 -111 418 q-88 110 -244 110zM732 1375q36 0 61.5 -25.5t25.5 -61.5q0 -37 -25.5 -62t-61.5 -25t-62 25t-26 62q0 36 26 61.5t62 25.5zM448 1375q37 0 62.5 -25.5t25.5 -61.5q0 -37 -26 -62t-61 -25q-37 0 -62.5 25t-25.5 62q0 36 25.5 61.5t61.5 25.5z" unicode="Ö"/>
<glyph glyph-name="multiply" horiz-adv-x="930" d="M133 264l284 284l-283 284l46 46l284 -283l283 283l45 -46l-283 -283l285 -285l-46 -47l-285 285l-284 -284z" unicode="×"/>
<glyph glyph-name="Oslash" horiz-adv-x="1191" d="M923 997l106 130l46 -35l-107 -135q84 -91 122 -184.5t38 -219.5q0 -276 -197 -447q-151 -131 -332 -131q-83 0 -174.5 30t-158.5 85l-104 -128l-48 38l107 132q-162 167 -162 425q0 237 157.5 398.5t380.5 161.5q182 0 326 -120zM856 914q-94 145 -264 145 q-74 0 -118 -17q-60 -24 -108 -78q-63 -70 -93 -172.5t-30 -230.5q0 -186 59 -328zM886 856l-551 -681q43 -66 93 -97q72 -45 160 -45q84 0 138 25.5t101 78.5t81 149.5t34 241.5q0 99 -15 184q-11 62 -41 144z" unicode="Ø"/>
<glyph glyph-name="Ugrave" horiz-adv-x="1191" d="M786 1062v30h387v-30h-41q-65 0 -99 -54q-17 -25 -17 -116v-443q0 -164 -32.5 -254.5t-128 -155.5t-259.5 -65q-179 0 -271.5 62t-131.5 167q-26 72 -26 269v426q0 101 -27.5 132.5t-89.5 31.5h-41v30h472v-30h-42q-68 0 -97 -43q-20 -29 -20 -121v-475q0 -64 11.5 -146 t42.5 -128t88.5 -76t140.5 -30q107 0 191.5 47t115.5 120t31 246v442q0 103 -22 128q-31 36 -93 36h-42zM452 1447h180l85 -278h-28z" unicode="Ù"/>
<glyph glyph-name="Uacute" horiz-adv-x="1191" d="M786 1062v30h387v-30h-41q-65 0 -99 -54q-17 -25 -17 -116v-443q0 -164 -32.5 -254.5t-128 -155.5t-259.5 -65q-179 0 -271.5 62t-131.5 167q-26 72 -26 269v426q0 101 -27.5 132.5t-89.5 31.5h-41v30h472v-30h-42q-68 0 -97 -43q-20 -29 -20 -121v-475q0 -64 11.5 -146 t42.5 -128t88.5 -76t140.5 -30q107 0 191.5 47t115.5 120t31 246v442q0 103 -22 128q-31 36 -93 36h-42zM773 1447l-238 -278h-27l85 278h180z" unicode="Ú"/>
<glyph glyph-name="Ucircumflex" horiz-adv-x="1191" d="M786 1062v30h387v-30h-41q-65 0 -99 -54q-17 -25 -17 -116v-443q0 -164 -32.5 -254.5t-128 -155.5t-259.5 -65q-179 0 -271.5 62t-131.5 167q-26 72 -26 269v426q0 101 -27.5 132.5t-89.5 31.5h-41v30h472v-30h-42q-68 0 -97 -43q-20 -29 -20 -121v-475q0 -64 11.5 -146 t42.5 -128t88.5 -76t140.5 -30q107 0 191.5 47t115.5 120t31 246v442q0 103 -22 128q-31 36 -93 36h-42zM556 1443h149l153 -267h-25l-220 172l-185 -172h-24z" unicode="Û"/>
<glyph glyph-name="Udieresis" horiz-adv-x="1191" d="M786 1062v30h387v-30h-41q-65 0 -99 -54q-17 -25 -17 -116v-443q0 -164 -32.5 -254.5t-128 -155.5t-259.5 -65q-179 0 -271.5 62t-131.5 167q-26 72 -26 269v426q0 101 -27.5 132.5t-89.5 31.5h-41v30h472v-30h-42q-68 0 -97 -43q-20 -29 -20 -121v-475q0 -64 11.5 -146 t42.5 -128t88.5 -76t140.5 -30q107 0 191.5 47t115.5 120t31 246v442q0 103 -22 128q-31 36 -93 36h-42zM773 1375q36 0 61.5 -25.5t25.5 -61.5q0 -37 -25.5 -62t-61.5 -25t-62 25t-26 62q0 36 26 61.5t62 25.5zM489 1375q37 0 62.5 -25.5t25.5 -61.5q0 -37 -26 -62t-61 -25 q-37 0 -62.5 25t-25.5 62q0 36 25.5 61.5t61.5 25.5z" unicode="Ü"/>
<glyph glyph-name="Yacute" horiz-adv-x="1191" d="M786 1092h380v-30h-20q-21 0 -61.5 -18.5t-73.5 -53t-81 -113.5l-263 -414v-274q0 -100 22 -125q31 -34 97 -34h35v-30h-464v30h39q69 0 98 42q18 25 18 117v259l-299 457q-54 80 -72.5 100.5t-78.5 48.5q-16 8 -47 8v30h467v-30h-24q-38 0 -69.5 -18t-31.5 -53 q0 -29 49 -105l228 -351l214 336q48 76 48 113q0 22 -11.5 40t-33.5 28t-65 10v30zM802 1447l-238 -278h-27l85 278h180z" unicode="Ý"/>
<glyph glyph-name="Thorn" horiz-adv-x="917" d="M338 844h60q120 0 180 -10q87 -15 144.5 -52t94 -98t36.5 -137q0 -62 -23 -114.5t-62.5 -90.5t-89.5 -60.5t-130 -32.5q-29 -4 -154 -4h-56v-49q0 -104 28 -135t95 -31h33v-30h-465v30h31q74 0 107 45q16 22 16 118v699q0 92 -9 113t-39 39t-74 18h-32v30h465v-30h-32 q-35 0 -76 -19q-24 -11 -36 -39t-12 -108v-52zM338 781v-479h36q98 0 152 22q73 31 107.5 88t34.5 133q0 60 -25 111t-65.5 79.5t-90.5 38.5q-32 7 -110 7h-39z" unicode="Þ"/>
<glyph glyph-name="germandbls" d="M28 0v29q48 4 69 17t29 36t8 99v597q0 200 75 284q75 83 213 83q130 0 206.5 -74t76.5 -188q0 -85 -43 -145q-32 -43 -111 -77q109 -32 164.5 -112t55.5 -209q0 -140 -73 -245t-196 -105q-71 0 -113 38.5t-42 91.5q0 34 17.5 52t46.5 18q31 0 48.5 -17.5t17.5 -46.5 q0 -12 -4 -26q-4 -19 -4 -28q0 -15 12 -26t33 -11q48 0 79 42q41 57 41 174q0 168 -59 266t-178 106v46q85 0 129 50.5t44 167.5q0 108 -42.5 156.5t-112.5 48.5q-65 0 -106 -51.5t-41 -205.5v-835h-240z" unicode="ß"/>
<glyph glyph-name="agrave" horiz-adv-x="732" d="M469 106q-113 -87 -142 -101q-44 -20 -93 -20q-76 0 -125.5 52t-49.5 138q0 54 24 93q33 55 114.5 103t271.5 118v29q0 110 -35 151t-102 41q-50 0 -80 -27q-31 -28 -31 -63l2 -47q0 -37 -19 -57t-49 -20t-49 21t-19 57q0 69 71 127t199 58q98 0 161 -33q47 -25 70 -78 q14 -35 14 -142v-250q0 -105 4 -129t13.5 -32t21.5 -8q13 0 22 6q17 10 66 58v-45q-91 -120 -173 -120q-39 0 -62.5 27t-24.5 93zM469 159v281q-121 -49 -157 -69q-63 -35 -90.5 -74t-27.5 -84q0 -58 34.5 -96.5t79.5 -38.5q61 0 161 81zM209 1119h180l85 -278h-28z" unicode="à"/>
<glyph glyph-name="aacute" horiz-adv-x="732" d="M469 106q-113 -87 -142 -101q-44 -20 -93 -20q-76 0 -125.5 52t-49.5 138q0 54 24 93q33 55 114.5 103t271.5 118v29q0 110 -35 151t-102 41q-50 0 -80 -27q-31 -28 -31 -63l2 -47q0 -37 -19 -57t-49 -20t-49 21t-19 57q0 69 71 127t199 58q98 0 161 -33q47 -25 70 -78 q14 -35 14 -142v-250q0 -105 4 -129t13.5 -32t21.5 -8q13 0 22 6q17 10 66 58v-45q-91 -120 -173 -120q-39 0 -62.5 27t-24.5 93zM469 159v281q-121 -49 -157 -69q-63 -35 -90.5 -74t-27.5 -84q0 -58 34.5 -96.5t79.5 -38.5q61 0 161 81zM549 1119l-238 -278h-27l85 278h180 z" unicode="á"/>
<glyph glyph-name="acircumflex" horiz-adv-x="732" d="M469 106q-113 -87 -142 -101q-44 -20 -93 -20q-76 0 -125.5 52t-49.5 138q0 54 24 93q33 55 114.5 103t271.5 118v29q0 110 -35 151t-102 41q-50 0 -80 -27q-31 -28 -31 -63l2 -47q0 -37 -19 -57t-49 -20t-49 21t-19 57q0 69 71 127t199 58q98 0 161 -33q47 -25 70 -78 q14 -35 14 -142v-250q0 -105 4 -129t13.5 -32t21.5 -8q13 0 22 6q17 10 66 58v-45q-91 -120 -173 -120q-39 0 -62.5 27t-24.5 93zM469 159v281q-121 -49 -157 -69q-63 -35 -90.5 -74t-27.5 -84q0 -58 34.5 -96.5t79.5 -38.5q61 0 161 81zM294 1115h149l153 -267h-25 l-220 172l-185 -172h-24z" unicode="â"/>
<glyph glyph-name="atilde" horiz-adv-x="732" d="M469 106q-113 -87 -142 -101q-44 -20 -93 -20q-76 0 -125.5 52t-49.5 138q0 54 24 93q33 55 114.5 103t271.5 118v29q0 110 -35 151t-102 41q-50 0 -80 -27q-31 -28 -31 -63l2 -47q0 -37 -19 -57t-49 -20t-49 21t-19 57q0 69 71 127t199 58q98 0 161 -33q47 -25 70 -78 q14 -35 14 -142v-250q0 -105 4 -129t13.5 -32t21.5 -8q13 0 22 6q17 10 66 58v-45q-91 -120 -173 -120q-39 0 -62.5 27t-24.5 93zM469 159v281q-121 -49 -157 -69q-63 -35 -90.5 -74t-27.5 -84q0 -58 34.5 -96.5t79.5 -38.5q61 0 161 81zM137 883h-25q3 110 45.5 159.5 t105.5 49.5q33 0 60 -11q37 -14 103 -57.5t99 -43.5q25 0 45 21.5t31 90.5h25q0 -75 -20 -119t-57.5 -68.5t-75.5 -24.5q-63 0 -158 64q-50 35 -68 42t-35 7q-33 0 -52 -29q-9 -13 -23 -81z" unicode="ã"/>
<glyph glyph-name="adieresis" horiz-adv-x="732" d="M469 106q-113 -87 -142 -101q-44 -20 -93 -20q-76 0 -125.5 52t-49.5 138q0 54 24 93q33 55 114.5 103t271.5 118v29q0 110 -35 151t-102 41q-50 0 -80 -27q-31 -28 -31 -63l2 -47q0 -37 -19 -57t-49 -20t-49 21t-19 57q0 69 71 127t199 58q98 0 161 -33q47 -25 70 -78 q14 -35 14 -142v-250q0 -105 4 -129t13.5 -32t21.5 -8q13 0 22 6q17 10 66 58v-45q-91 -120 -173 -120q-39 0 -62.5 27t-24.5 93zM469 159v281q-121 -49 -157 -69q-63 -35 -90.5 -74t-27.5 -84q0 -58 34.5 -96.5t79.5 -38.5q61 0 161 81zM510 1076q36 0 61.5 -25.5 t25.5 -61.5q0 -37 -25.5 -62t-61.5 -25t-62 25t-26 62q0 36 26 61.5t62 25.5zM226 1076q37 0 62.5 -25.5t25.5 -61.5q0 -37 -26 -62t-61 -25q-37 0 -62.5 25t-25.5 62q0 36 25.5 61.5t61.5 25.5z" unicode="ä"/>
<glyph glyph-name="aring" horiz-adv-x="732" d="M469 106q-113 -87 -142 -101q-44 -20 -93 -20q-76 0 -125.5 52t-49.5 138q0 54 24 93q33 55 114.5 103t271.5 118v29q0 110 -35 151t-102 41q-50 0 -80 -27q-31 -28 -31 -63l2 -47q0 -37 -19 -57t-49 -20t-49 21t-19 57q0 69 71 127t199 58q98 0 161 -33q47 -25 70 -78 q14 -35 14 -142v-250q0 -105 4 -129t13.5 -32t21.5 -8q13 0 22 6q17 10 66 58v-45q-91 -120 -173 -120q-39 0 -62.5 27t-24.5 93zM469 159v281q-121 -49 -157 -69q-63 -35 -90.5 -74t-27.5 -84q0 -58 34.5 -96.5t79.5 -38.5q61 0 161 81zM369 1148q64 0 109 -45t45 -108 q0 -65 -45 -110t-109 -45t-109 45t-45 110q0 63 44.5 108t109.5 45zM369 1093q-42 0 -70.5 -28.5t-28.5 -69.5t28.5 -70t70.5 -29q41 0 69.5 29t28.5 70t-28.5 69.5t-69.5 28.5z" unicode="å"/>
<glyph glyph-name="ae" horiz-adv-x="1100" d="M591 456q-1 -41 -1 -59q0 -162 58 -230.5t148 -68.5q78 0 142 49q40 32 86 128l26 -17q-29 -131 -125 -218q-69 -63 -173 -63q-87 0 -149 38q-29 19 -89 91q-10 -7 -45 -34q-46 -38 -62 -47q-38 -22 -81 -35t-88 -13q-75 0 -127 54t-52 131q0 70 35 119t137 101 q126 65 222 99v74q0 87 -32 122.5t-86 35.5q-53 0 -83 -26q-31 -26 -31 -58q0 -68 -6.5 -88t-21 -30.5t-36.5 -10.5q-31 0 -48 18q-24 26 -24 58q0 42 29 84t92.5 71t147.5 29q100 0 150.5 -28.5t67.5 -70.5q38 48 81 70q57 29 135 29q116 0 189 -78t73 -226h-459zM591 509 h304q-1 101 -42.5 147.5t-106.5 46.5q-64 0 -109 -50.5t-46 -143.5zM491 148q-17 36 -27.5 94.5t-10.5 114.5v71q-108 -34 -199 -103q-60 -46 -60 -117q0 -64 38 -104t92 -40q31 0 66 16.5t101 67.5z" unicode="æ"/>
<glyph glyph-name="ccedilla" horiz-adv-x="732" d="M678 280q-30 -146 -117 -224.5t-192 -78.5q-126 0 -219.5 105.5t-93.5 285.5q0 174 103.5 282.5t248.5 108.5q109 0 179 -57.5t70 -119.5q0 -31 -20 -49.5t-55 -18.5q-47 0 -72 30q-13 17 -17.5 64.5t-32.5 72.5q-29 24 -78 24q-81 0 -130 -59q-65 -79 -65 -209 q0 -132 64.5 -233t175.5 -101q79 0 141 54q45 37 86 134zM379 13h48l-40 -64q50 -13 75 -43.5t25 -73.5q0 -58 -48 -102t-125 -44q-30 0 -75 6v34q22 -3 38 -3q41 0 69.5 27t28.5 62q0 24 -18.5 41.5t-46.5 17.5q-8 0 -21 -1z" unicode="ç"/>
<glyph glyph-name="egrave" horiz-adv-x="732" d="M175 460q0 -165 80 -258q81 -93 189 -93q73 0 126.5 39.5t89.5 136.5l25 -16q-17 -110 -98 -201t-204 -91q-133 0 -227.5 103.5t-94.5 278.5q0 189 97 295t244 106q124 0 203.5 -81.5t79.5 -218.5h-510zM175 506h342q-4 71 -17 100q-20 45 -60 71t-83 26q-67 0 -120 -52 t-62 -145zM229 1119h180l85 -278h-28z" unicode="è"/>
<glyph glyph-name="eacute" horiz-adv-x="732" d="M175 460q0 -165 80 -258q81 -93 189 -93q73 0 126.5 39.5t89.5 136.5l25 -16q-17 -110 -98 -201t-204 -91q-133 0 -227.5 103.5t-94.5 278.5q0 189 97 295t244 106q124 0 203.5 -81.5t79.5 -218.5h-510zM175 506h342q-4 71 -17 100q-20 45 -60 71t-83 26q-67 0 -120 -52 t-62 -145zM560 1119l-238 -278h-27l85 278h180z" unicode="é"/>
<glyph glyph-name="ecircumflex" horiz-adv-x="732" d="M175 460q0 -165 80 -258q81 -93 189 -93q73 0 126.5 39.5t89.5 136.5l25 -16q-17 -110 -98 -201t-204 -91q-133 0 -227.5 103.5t-94.5 278.5q0 189 97 295t244 106q124 0 203.5 -81.5t79.5 -218.5h-510zM175 506h342q-4 71 -17 100q-20 45 -60 71t-83 26q-67 0 -120 -52 t-62 -145zM324 1115h149l153 -267h-25l-220 172l-185 -172h-24z" unicode="ê"/>
<glyph glyph-name="edieresis" horiz-adv-x="732" d="M175 460q0 -165 80 -258q81 -93 189 -93q73 0 126.5 39.5t89.5 136.5l25 -16q-17 -110 -98 -201t-204 -91q-133 0 -227.5 103.5t-94.5 278.5q0 189 97 295t244 106q124 0 203.5 -81.5t79.5 -218.5h-510zM175 506h342q-4 71 -17 100q-20 45 -60 71t-83 26q-67 0 -120 -52 t-62 -145zM540 1076q36 0 61.5 -25.5t25.5 -61.5q0 -37 -25.5 -62t-61.5 -25t-62 25t-26 62q0 36 26 61.5t62 25.5zM256 1076q37 0 62.5 -25.5t25.5 -61.5q0 -37 -26 -62t-61 -25q-37 0 -62.5 25t-25.5 62q0 36 25.5 61.5t61.5 25.5z" unicode="ë"/>
<glyph glyph-name="igrave" horiz-adv-x="458" d="M305 759v-592q0 -70 10.5 -92.5t30 -34t72.5 -11.5v-29h-358v29q54 0 72.5 10.5t29 34.5t10.5 93v284q0 120 -7 155q-6 26 -18 36t-33 10q-22 0 -54 -12l-12 29l222 90h35zM63 1119h180l85 -278h-28z" unicode="ì"/>
<glyph glyph-name="iacute" horiz-adv-x="458" d="M305 759v-592q0 -70 10.5 -92.5t30 -34t72.5 -11.5v-29h-358v29q54 0 72.5 10.5t29 34.5t10.5 93v284q0 120 -7 155q-6 26 -18 36t-33 10q-22 0 -54 -12l-12 29l222 90h35zM402 1119l-238 -278h-27l85 278h180z" unicode="í"/>
<glyph glyph-name="icircumflex" horiz-adv-x="458" d="M305 759v-592q0 -70 10.5 -92.5t30 -34t72.5 -11.5v-29h-358v29q54 0 72.5 10.5t29 34.5t10.5 93v284q0 120 -7 155q-6 26 -18 36t-33 10q-22 0 -54 -12l-12 29l222 90h35zM163 1115h149l153 -267h-25l-220 172l-185 -172h-24z" unicode="î"/>
<glyph glyph-name="idieresis" horiz-adv-x="458" d="M305 759v-592q0 -70 10.5 -92.5t30 -34t72.5 -11.5v-29h-358v29q54 0 72.5 10.5t29 34.5t10.5 93v284q0 120 -7 155q-6 26 -18 36t-33 10q-22 0 -54 -12l-12 29l222 90h35zM374 1076q36 0 61.5 -25.5t25.5 -61.5q0 -37 -25.5 -62t-61.5 -25t-62 25t-26 62q0 36 26 61.5 t62 25.5zM90 1076q37 0 62.5 -25.5t25.5 -61.5q0 -37 -26 -62t-61 -25q-37 0 -62.5 25t-25.5 62q0 36 25.5 61.5t61.5 25.5z" unicode="ï"/>
<glyph glyph-name="eth" d="M378 941l-199 -109l-24 45l187 106q-53 54 -80 76t-71 51l22 35q96 -49 198 -125l201 112l27 -44l-184 -105q153 -133 231 -293t78 -308q0 -112 -46.5 -206t-130 -146.5t-185.5 -52.5q-144 0 -245.5 107.5t-101.5 270.5q0 170 111 294q95 104 227 104q39 0 71 -11 q25 -8 65 -37q-65 133 -151 236zM386 704q-78 0 -130 -65.5t-52 -221.5q0 -109 32.5 -201.5t88 -137t115.5 -44.5q74 0 124.5 63.5t50.5 205.5q0 182 -63.5 291.5t-165.5 109.5z" unicode="ð"/>
<glyph glyph-name="ntilde" d="M266 603q130 156 248 156q60 0 103.5 -30t69.5 -99q17 -49 17 -149v-314q0 -70 12 -95q9 -20 28.5 -31.5t72.5 -11.5v-29h-365v29h16q51 0 71.5 15.5t28.5 46.5q4 12 4 76v302q0 100 -26.5 145.5t-88.5 45.5q-96 0 -191 -105v-388q0 -75 9 -93q12 -23 31.5 -34t79.5 -11 v-29h-364v29h16q56 0 76 28.5t20 109.5v273q0 133 -6 162t-18.5 39.5t-33.5 10.5q-23 0 -54 -12l-12 29l222 90h34v-156zM181 883h-25q3 110 45.5 159.5t105.5 49.5q33 0 60 -11q37 -14 103 -57.5t99 -43.5q25 0 45 21.5t31 90.5h25q0 -75 -20 -119t-57.5 -68.5t-75.5 -24.5 q-63 0 -158 64q-50 35 -68 42t-35 7q-33 0 -52 -29q-9 -13 -23 -81z" unicode="ñ"/>
<glyph glyph-name="ograve" d="M412 759q168 0 269 -127q86 -109 86 -250q0 -99 -47.5 -200t-130.5 -153t-186 -52q-166 0 -265 133q-82 112 -82 251q0 102 50 202t132 148t174 48zM387 707q-42 0 -85.5 -25.5t-70 -89t-26.5 -163.5q0 -161 64 -277.5t169 -116.5q78 0 128.5 64t50.5 221q0 197 -84 310 q-57 77 -146 77zM242 1119h180l85 -278h-28z" unicode="ò"/>
<glyph glyph-name="oacute" d="M412 759q168 0 269 -127q86 -109 86 -250q0 -99 -47.5 -200t-130.5 -153t-186 -52q-166 0 -265 133q-82 112 -82 251q0 102 50 202t132 148t174 48zM387 707q-42 0 -85.5 -25.5t-70 -89t-26.5 -163.5q0 -161 64 -277.5t169 -116.5q78 0 128.5 64t50.5 221q0 197 -84 310 q-57 77 -146 77zM582 1119l-238 -278h-27l85 278h180z" unicode="ó"/>
<glyph glyph-name="ocircumflex" d="M412 759q168 0 269 -127q86 -109 86 -250q0 -99 -47.5 -200t-130.5 -153t-186 -52q-166 0 -265 133q-82 112 -82 251q0 102 50 202t132 148t174 48zM387 707q-42 0 -85.5 -25.5t-70 -89t-26.5 -163.5q0 -161 64 -277.5t169 -116.5q78 0 128.5 64t50.5 221q0 197 -84 310 q-57 77 -146 77zM347 1115h149l153 -267h-25l-220 172l-185 -172h-24z" unicode="ô"/>
<glyph glyph-name="otilde" d="M412 759q168 0 269 -127q86 -109 86 -250q0 -99 -47.5 -200t-130.5 -153t-186 -52q-166 0 -265 133q-82 112 -82 251q0 102 50 202t132 148t174 48zM387 707q-42 0 -85.5 -25.5t-70 -89t-26.5 -163.5q0 -161 64 -277.5t169 -116.5q78 0 128.5 64t50.5 221q0 197 -84 310 q-57 77 -146 77zM180 883h-25q3 110 45.5 159.5t105.5 49.5q33 0 60 -11q37 -14 103 -57.5t99 -43.5q25 0 45 21.5t31 90.5h25q0 -75 -20 -119t-57.5 -68.5t-75.5 -24.5q-63 0 -158 64q-50 35 -68 42t-35 7q-33 0 -52 -29q-9 -13 -23 -81z" unicode="õ"/>
<glyph glyph-name="odieresis" d="M412 759q168 0 269 -127q86 -109 86 -250q0 -99 -47.5 -200t-130.5 -153t-186 -52q-166 0 -265 133q-82 112 -82 251q0 102 50 202t132 148t174 48zM387 707q-42 0 -85.5 -25.5t-70 -89t-26.5 -163.5q0 -161 64 -277.5t169 -116.5q78 0 128.5 64t50.5 221q0 197 -84 310 q-57 77 -146 77zM553 1076q36 0 61.5 -25.5t25.5 -61.5q0 -37 -25.5 -62t-61.5 -25t-62 25t-26 62q0 36 26 61.5t62 25.5zM269 1076q37 0 62.5 -25.5t25.5 -61.5q0 -37 -26 -62t-61 -25q-37 0 -62.5 25t-25.5 62q0 36 25.5 61.5t61.5 25.5z" unicode="ö"/>
<glyph glyph-name="divide" horiz-adv-x="905" d="M452 865q29 0 49.5 -20.5t20.5 -49.5t-20.5 -49.5t-49.5 -20.5t-49.5 20.5t-20.5 49.5t20.5 49.5t49.5 20.5zM886 515h-867v66h867v-66zM452 366q30 0 50.5 -21t20.5 -50t-21 -49.5t-50 -20.5t-49.5 20.5t-20.5 49.5t20.5 50t49.5 21z" unicode="÷"/>
<glyph glyph-name="oslash" d="M649 670l107 118l37 -35l-109 -122q86 -109 86 -251q0 -95 -47 -197t-129.5 -154t-185.5 -52q-67 0 -118.5 21t-111.5 71l-109 -123l-38 35l114 128q-40 50 -62.5 122t-22.5 135q0 96 48.5 193.5t130.5 148.5t180 51q66 0 119.5 -21t110.5 -68zM567 579q-41 71 -81 99 t-93 28q-79 0 -131.5 -64.5t-52.5 -213.5q0 -100 32 -211zM589 526l-324 -362q41 -74 80.5 -101.5t94.5 -27.5q80 0 130.5 64t50.5 225q0 97 -32 202z" unicode="ø"/>
<glyph glyph-name="ugrave" d="M698 737v-446q0 -128 6 -157t19.5 -40t30.5 -11q25 0 57 14l11 -29l-221 -91h-36v157q-95 -103 -145 -130t-105 -27q-62 0 -107.5 36t-63.5 92.5t-18 159.5v329q0 52 -11 72.5t-33 31t-80 10.5v29h258v-493q0 -103 36 -135.5t86 -32.5q35 0 79 22t104 83v418q0 63 -23 85 t-95 24v29h251zM247 1119h180l85 -278h-28z" unicode="ù"/>
<glyph glyph-name="uacute" d="M698 737v-446q0 -128 6 -157t19.5 -40t30.5 -11q25 0 57 14l11 -29l-221 -91h-36v157q-95 -103 -145 -130t-105 -27q-62 0 -107.5 36t-63.5 92.5t-18 159.5v329q0 52 -11 72.5t-33 31t-80 10.5v29h258v-493q0 -103 36 -135.5t86 -32.5q35 0 79 22t104 83v418q0 63 -23 85 t-95 24v29h251zM563 1119l-238 -278h-27l85 278h180z" unicode="ú"/>
<glyph glyph-name="ucircumflex" d="M698 737v-446q0 -128 6 -157t19.5 -40t30.5 -11q25 0 57 14l11 -29l-221 -91h-36v157q-95 -103 -145 -130t-105 -27q-62 0 -107.5 36t-63.5 92.5t-18 159.5v329q0 52 -11 72.5t-33 31t-80 10.5v29h258v-493q0 -103 36 -135.5t86 -32.5q35 0 79 22t104 83v418q0 63 -23 85 t-95 24v29h251zM340 1115h149l153 -267h-25l-220 172l-185 -172h-24z" unicode="û"/>
<glyph glyph-name="udieresis" d="M698 737v-446q0 -128 6 -157t19.5 -40t30.5 -11q25 0 57 14l11 -29l-221 -91h-36v157q-95 -103 -145 -130t-105 -27q-62 0 -107.5 36t-63.5 92.5t-18 159.5v329q0 52 -11 72.5t-33 31t-80 10.5v29h258v-493q0 -103 36 -135.5t86 -32.5q35 0 79 22t104 83v418q0 63 -23 85 t-95 24v29h251zM553 1076q36 0 61.5 -25.5t25.5 -61.5q0 -37 -25.5 -62t-61.5 -25t-62 25t-26 62q0 36 26 61.5t62 25.5zM269 1076q37 0 62.5 -25.5t25.5 -61.5q0 -37 -26 -62t-61 -25q-37 0 -62.5 25t-25.5 62q0 36 25.5 61.5t61.5 25.5z" unicode="ü"/>
<glyph glyph-name="yacute" d="M10 737h343v-29h-17q-36 0 -54 -16t-18 -39q0 -32 27 -87l179 -372l165 407q14 33 14 66q0 14 -6 21q-6 9 -20 14.5t-48 5.5v29h240v-29q-30 -4 -46 -13.5t-36 -36.5q-7 -11 -27 -61l-300 -736q-44 -107 -114.5 -162t-135.5 -55q-47 0 -78 27.5t-31 62.5q0 34 22.5 54.5 t60.5 20.5q27 0 73 -17q32 -13 40 -13q24 0 52.5 25t57.5 97l53 128l-265 556q-12 25 -39 62q-20 28 -33 38q-18 13 -59 23v29zM589 1119l-238 -278h-27l85 278h180z" unicode="ý"/>
<glyph glyph-name="thorn" d="M-2 1053l227 92h31v-561q57 97 114.5 136t121.5 39q111 0 185 -87q91 -106 91 -277q0 -191 -110 -315q-90 -103 -227 -103q-59 0 -103 17q-32 12 -72 49v-225q0 -75 9.5 -95t32 -32t83.5 -12v-31h-387v31l20 -1q45 -1 76 17q15 9 23.5 28.5t8.5 99.5v1086q0 71 -6.5 91 t-20.5 29.5t-38 9.5q-19 0 -49 -12zM256 536v-275q0 -90 7 -118q12 -46 55.5 -81.5t110.5 -35.5q81 0 130 63q66 82 66 231q0 169 -74 260q-52 62 -123 62q-38 0 -76 -19q-29 -14 -96 -87z" unicode="þ"/>
<glyph glyph-name="dotlessi" horiz-adv-x="458" d="M305 759v-592q0 -70 10.5 -92.5t30 -34t72.5 -11.5v-29h-358v29q54 0 72.5 10.5t29 34.5t10.5 93v284q0 120 -7 155q-6 26 -18 36t-33 10q-22 0 -54 -12l-12 29l222 90h35z" unicode="ı"/>
<glyph glyph-name="circumflex" horiz-adv-x="549" d="M200 1115h149l153 -267h-25l-220 172l-185 -172h-24z" unicode="ˆ"/>
<glyph glyph-name="ring" horiz-adv-x="549" d="M275 1146q64 0 109 -45t45 -108q0 -65 -45 -110t-109 -45t-109 45t-45 110q0 63 44.5 108t109.5 45zM275 1091q-42 0 -70.5 -28.5t-28.5 -69.5t28.5 -70t70.5 -29q41 0 69.5 29t28.5 70t-28.5 69.5t-69.5 28.5z" unicode="˚"/>
<glyph glyph-name="tilde" horiz-adv-x="549" d="M43 883h-25q3 110 45.5 159.5t105.5 49.5q33 0 60 -11q37 -14 103 -57.5t99 -43.5q25 0 45 21.5t31 90.5h25q0 -75 -20 -119t-57.5 -68.5t-75.5 -24.5q-63 0 -158 64q-50 35 -68 42t-35 7q-33 0 -52 -29q-9 -13 -23 -81z" unicode="˜"/>
<glyph glyph-name="uni0906" horiz-adv-x="1736" d="M38 440h60q0 -139 85.5 -239.5t204.5 -100.5q86 0 148 59t62 145q0 87 -61.5 146.5t-148.5 59.5h-70v60h70q78 0 134 53t56 131q0 79 -55.5 132.5t-134.5 53.5q-68 0 -122.5 -41.5t-77.5 -108.5l-50 30q32 89 114 144.5t186 55.5q132 0 226 -76t94 -184 q0 -79 -51.5 -137.5t-128.5 -72.5v-10q97 -16 158.5 -86.5t61.5 -163.5q0 -121 -112 -205.5t-268 -84.5t-268 130t-112 310zM1098 960v-820q0 -41 42 -70.5t98 -29.5v-40h-460v40q56 0 98 29t42 71v370h-120v70h120v380h-120v80h1008v-80h-218v-840q0 -33 42.5 -56.5 t97.5 -23.5v-40h-460v40q56 0 98 23t42 57v840h-310zM1248 0z" unicode="आ"/>
<glyph glyph-name="uni0912" horiz-adv-x="1736" d="M38 440h60q0 -139 85.5 -239.5t204.5 -100.5q86 0 148 59t62 145q0 87 -61.5 146.5t-148.5 59.5h-70v60h70q78 0 134 53t56 131q0 79 -55.5 132.5t-134.5 53.5q-68 0 -122.5 -41.5t-77.5 -108.5l-50 30q32 89 114 144.5t186 55.5q132 0 226 -76t94 -184 q0 -79 -51.5 -137.5t-128.5 -72.5v-10q97 -16 158.5 -86.5t61.5 -163.5q0 -121 -112 -205.5t-268 -84.5t-268 130t-112 310zM1098 960v-820q0 -41 42 -70.5t98 -29.5v-40h-460v40q56 0 98 29t42 71v370h-120v70h120v380h-120v80h1008v-80h-218v-840q0 -33 42.5 -56.5 t97.5 -23.5v-40h-460v40q56 0 98 23t42 57v840h-310zM1248 0zM1579 1060h-160q0 76 -87 129t-209 53q-155 0 -264.5 90t-109.5 218h200q0 -103 80.5 -176.5t193.5 -73.5q138 0 247 -66t109 -174z" unicode="ऒ"/>
<glyph glyph-name="uni0946" horiz-adv-x="0" d="M-158 1060h-160q0 76 -87 129t-209 53q-155 0 -264.5 90t-109.5 218h200q0 -103 80.5 -176.5t193.5 -73.5q138 0 247 -66t109 -174z" unicode="ॆ"/>
</font>
</defs>
</svg>
